<svg width="1000" height="800" xmlns="http://www.w3.org/2000/svg" xmlns:xlink="http://www.w3.org/1999/xlink" version="1.1" baseProfile="full" viewBox="0 0 1000 800">
<rect width="1000" height="800" x="0" y="0" id="0" fill="none"></rect>
<path d="M100 730.5L900 730.5" fill="none" stroke="#E0E6F1"></path>
<path d="M100 618.5L900 618.5" fill="none" stroke="#E0E6F1"></path>
<path d="M100 506.5L900 506.5" fill="none" stroke="#E0E6F1"></path>
<path d="M100 395.5L900 395.5" fill="none" stroke="#E0E6F1"></path>
<path d="M100 283.5L900 283.5" fill="none" stroke="#E0E6F1"></path>
<path d="M100 171.5L900 171.5" fill="none" stroke="#E0E6F1"></path>
<path d="M100 60.5L900 60.5" fill="none" stroke="#E0E6F1"></path>
<path d="M100.5 60L100.5 730" fill="none" stroke="#E0E6F1"></path>
<path d="M233.5 60L233.5 730" fill="none" stroke="#E0E6F1"></path>
<path d="M366.5 60L366.5 730" fill="none" stroke="#E0E6F1"></path>
<path d="M500.5 60L500.5 730" fill="none" stroke="#E0E6F1"></path>
<path d="M633.5 60L633.5 730" fill="none" stroke="#E0E6F1"></path>
<path d="M766.5 60L766.5 730" fill="none" stroke="#E0E6F1"></path>
<path d="M900.5 60L900.5 730" fill="none" stroke="#E0E6F1"></path>
<path d="M500.5 730L500.5 60" fill="none" stroke="#6E7079" stroke-linecap="round"></path>
<text dominant-baseline="central" text-anchor="middle" style="font-size:12px;font-family:sans-serif;" xml:space="preserve" y="-6" transform="translate(500 45)" fill="#6E7079">Ig in muA</text>
<path d="M100 395.5L900 395.5" fill="none" stroke="#6E7079" stroke-linecap="round"></path>
<text dominant-baseline="central" text-anchor="start" style="font-size:12px;font-family:sans-serif;" xml:space="preserve" transform="translate(915 395)" fill="#6E7079">U in V</text>
<path d="M500 730.5L495 730.5" fill="none" stroke="#6E7079"></path>
<path d="M500 618.5L495 618.5" fill="none" stroke="#6E7079"></path>
<path d="M500 506.5L495 506.5" fill="none" stroke="#6E7079"></path>
<path d="M500 395.5L495 395.5" fill="none" stroke="#6E7079"></path>
<path d="M500 283.5L495 283.5" fill="none" stroke="#6E7079"></path>
<path d="M500 171.5L495 171.5" fill="none" stroke="#6E7079"></path>
<path d="M500 60.5L495 60.5" fill="none" stroke="#6E7079"></path>
<path d="M100.5 395L100.5 400" fill="none" stroke="#6E7079"></path>
<path d="M233.5 395L233.5 400" fill="none" stroke="#6E7079"></path>
<path d="M366.5 395L366.5 400" fill="none" stroke="#6E7079"></path>
<path d="M500.5 395L500.5 400" fill="none" stroke="#6E7079"></path>
<path d="M633.5 395L633.5 400" fill="none" stroke="#6E7079"></path>
<path d="M766.5 395L766.5 400" fill="none" stroke="#6E7079"></path>
<path d="M900.5 395L900.5 400" fill="none" stroke="#6E7079"></path>
<text dominant-baseline="central" text-anchor="end" style="font-size:12px;font-family:sans-serif;" transform="translate(92 730)" fill="#6E7079">-9</text>
<text dominant-baseline="central" text-anchor="end" style="font-size:12px;font-family:sans-serif;" transform="translate(92 618.3333)" fill="#6E7079">-6</text>
<text dominant-baseline="central" text-anchor="end" style="font-size:12px;font-family:sans-serif;" transform="translate(92 506.6667)" fill="#6E7079">-3</text>
<text dominant-baseline="central" text-anchor="end" style="font-size:12px;font-family:sans-serif;" transform="translate(92 395)" fill="#6E7079">0</text>
<text dominant-baseline="central" text-anchor="end" style="font-size:12px;font-family:sans-serif;" transform="translate(92 283.3333)" fill="#6E7079">3</text>
<text dominant-baseline="central" text-anchor="end" style="font-size:12px;font-family:sans-serif;" transform="translate(92 171.6667)" fill="#6E7079">6</text>
<text dominant-baseline="central" text-anchor="end" style="font-size:12px;font-family:sans-serif;" transform="translate(92 60)" fill="#6E7079">9</text>
<text dominant-baseline="central" text-anchor="middle" style="font-size:12px;font-family:sans-serif;" y="6" transform="translate(100 738)" fill="#6E7079">-30</text>
<text dominant-baseline="central" text-anchor="middle" style="font-size:12px;font-family:sans-serif;" y="6" transform="translate(233.3333 738)" fill="#6E7079">-20</text>
<text dominant-baseline="central" text-anchor="middle" style="font-size:12px;font-family:sans-serif;" y="6" transform="translate(366.6667 738)" fill="#6E7079">-10</text>
<text dominant-baseline="central" text-anchor="middle" style="font-size:12px;font-family:sans-serif;" y="6" transform="translate(500 738)" fill="#6E7079">0</text>
<text dominant-baseline="central" text-anchor="middle" style="font-size:12px;font-family:sans-serif;" y="6" transform="translate(633.3333 738)" fill="#6E7079">10</text>
<text dominant-baseline="central" text-anchor="middle" style="font-size:12px;font-family:sans-serif;" y="6" transform="translate(766.6667 738)" fill="#6E7079">20</text>
<text dominant-baseline="central" text-anchor="middle" style="font-size:12px;font-family:sans-serif;" y="6" transform="translate(900 738)" fill="#6E7079">30</text>
<g clip-path="url(#zr2-c0)">
<path d="M106.7 645.8L108 645.2L109.3 644.6L110.7 644L112 643.4L113.3 642.8L114.7 642.1L116 641.4L117.3 640.8L118.7 640.2L120 639.7L121.3 639.2L122.7 638.6L124 638L125.3 637.4L126.7 636.8L128 636.4L129.3 635.9L130.7 635.3L132 634.8L133.3 634.2L134.7 633.8L136 633.3L137.3 632.7L138.7 632.2L140 631.6L141.3 631.1L142.7 630.6L144 630.2L145.3 629.7L146.7 629.2L148 628.7L149.3 628.1L150.7 627.6L152 626.9L153.3 626.4L154.7 626L156 625.4L157.3 624.8L158.7 624.2L160 623.6L161.3 623.1L162.7 622.4L164 621.9L165.3 621.4L166.7 620.9L168 620.3L169.3 619.8L170.7 619.2L172 618.6L173.3 618L174.7 617.4L176 616.8L177.3 616.3L178.7 615.8L180 615.2L181.3 614.7L182.7 614.2L184 613.6L185.3 613.1L186.7 612.6L188 612L189.3 611.5L190.7 610.9L192 610.3L193.3 609.6L194.7 609.1L196 608.5L197.3 607.9L198.7 607.3L200 606.7L201.3 606.1L202.7 605.5L204 604.9L205.3 604.3L206.7 603.8L208 603.3L209.3 602.7L210.7 602L212 601.4L213.3 600.7L214.7 600.1L216 599.5L217.3 598.9L218.7 598.3L220 597.8L221.3 597.2L222.7 596.6L224 595.9L225.3 595.3L226.7 594.8L228 594.1L229.3 593.5L230.7 592.9L232 592.3L233.3 591.8L234.7 591.1L236 590.5L237.3 589.9L238.7 589.4L240 588.7L241.3 588.2L242.7 587.5L244 586.9L245.3 586.3L246.7 585.7L248 585L249.3 584.4L250.7 583.7L252 583.1L253.3 582.6L254.7 581.9L256 581.3L257.3 580.7L258.7 580.1L260 579.4L261.3 578.8L262.7 578.1L264 577.5L265.3 576.8L266.7 576.2L268 575.6L269.3 574.9L270.7 574.3L272 573.7L273.3 573.1L274.7 572.4L276 571.8L277.3 571.1L278.7 570.5L280 569.8L281.3 569.1L282.7 568.5L284 567.8L285.3 567.2L286.7 566.6L288 565.9L289.3 565.3L290.7 564.6L292 563.8L293.3 563.1L294.7 562.4L296 561.8L297.3 561.1L298.7 560.4L300 559.7L301.3 559L302.7 558.3L304 557.6L305.3 556.9L306.7 556.2L308 555.6L309.3 555L310.7 554.4L312 553.6L313.3 552.9L314.7 552.2L316 551.5L317.3 550.7L318.7 550.1L320 549.4L321.3 548.7L322.7 548L324 547.3L325.3 546.6L326.7 545.9L328 545.2L329.3 544.6L330.7 543.8L332 543L333.3 542.3L334.7 541.5L336 540.8L337.3 540L338.7 539.2L340 538.5L341.3 537.7L342.7 537L344 536.2L345.3 535.5L346.7 534.7L348 533.9L349.3 533.2L350.7 532.5L352 531.7L353.3 530.9L354.7 530.1L356 529.2L357.3 528.5L358.7 527.7L360 527L361.3 526.2L362.7 525.4L364 524.6L365.3 523.8L366.7 523L368 522.2L369.3 521.4L370.7 520.6L372 519.8L373.3 519L374.7 518.2L376 517.4L377.3 516.5L378.7 515.7L380 514.8L381.3 514L382.7 513.2L384 512.4L385.3 511.5L386.7 510.6L388 509.8L389.3 508.9L390.7 508L392 507.1L393.3 506.2L394.7 505.3L396 504.4L397.3 503.4L398.7 502.5L400 501.5L401.3 500.6L402.7 499.6L404 498.6L405.3 497.6L406.7 496.7L408 495.7L409.3 494.7L410.7 493.6L412 492.6L413.3 491.6L414.7 490.5L416 489.4L417.3 488.4L418.7 487.3L420 486.2L421.3 485.1L422.7 484L424 482.9L425.3 481.7L426.7 480.5L428 479.3L429.3 478.1L430.7 477L432 475.8L433.3 474.6L434.7 473.3L436 472L437.3 470.8L438.7 469.5L440 468.3L441.3 466.9L442.7 465.6L444 464.3L445.3 462.9L446.7 461.5L448 460.1L449.3 458.7L450.7 457.2L452 455.8L453.3 454.4L454.7 452.9L456 451.4L457.3 449.9L458.7 448.3L460 446.7L461.3 445.1L462.7 443.5L464 441.9L465.3 440.2L466.7 438.6L468 436.8L469.3 435.1L470.7 433.4L472 431.6L473.3 429.9L474.7 428.2L476 426.4L477.3 424.6L478.7 422.8L480 420.9L481.3 419.1L482.7 417.2L484 415.4L485.3 413.5L486.7 411.6L488 409.7L489.3 407.7L490.7 405.8L492 403.9L493.3 401.9L494.7 400L496 398.1L497.3 396.1L498.7 394.2L500 392.2L501.3 390.2L502.7 388.3L504 386.3L505.3 384.3L506.7 382.4L508 380.5L509.3 378.5L510.7 376.6L512 374.8L513.3 372.9L514.7 371.1L516 369.2L517.3 367.4L518.7 365.5L520 363.7L521.3 361.9L522.7 360.2L524 358.4L525.3 356.6L526.7 354.9L528 353.2L529.3 351.5L530.7 349.9L532 348.2L533.3 346.6L534.7 345L536 343.4L537.3 341.9L538.7 340.3L540 338.8L541.3 337.3L542.7 335.7L544 334.2L545.3 332.9L546.7 331.4L548 330L549.3 328.7L550.7 327.3L552 326L553.3 324.7L554.7 323.3L556 322.1L557.3 320.9L558.7 319.6L560 318.4L561.3 317.2L562.7 316.1L564 314.9L565.3 313.7L566.7 312.6L568 311.4L569.3 310.3L570.7 309.2L572 308.1L573.3 307.1L574.7 306L576 305L577.3 304L578.7 303L580 302L581.3 301.1L582.7 300.2L584 299.2L585.3 298.3L586.7 297.4L588 296.5L589.3 295.6L590.7 294.7L592 293.8L593.3 293.1L594.7 292.2L596 291.5L597.3 290.6L598.7 289.8L600 289.1L601.3 288.3L602.7 287.5L604 286.7L605.3 286L606.7 285.2L608 284.4L609.3 283.7L610.7 282.9L612 282.2L613.3 281.4L614.7 280.7L616 280L617.3 279.3L618.7 278.6L620 277.9L621.3 277.1L622.7 276.4L624 275.7L625.3 275L626.7 274.4L628 273.7L629.3 273L630.7 272.4L632 271.7L633.3 271L634.7 270.3L636 269.7L637.3 269L638.7 268.5L640 267.8L641.3 267.3L642.7 266.6L644 265.9L645.3 265.3L646.7 264.8L648 264.2L649.3 263.5L650.7 263L652 262.3L653.3 261.8L654.7 261.2L656 260.5L657.3 260L658.7 259.3L660 258.7L661.3 258.1L662.7 257.5L664 256.9L665.3 256.4L666.7 255.7L668 255.1L669.3 254.4L670.7 253.9L672 253.4L673.3 252.8L674.7 252.2L676 251.6L677.3 251.1L678.7 250.5L680 249.9L681.3 249.3L682.7 248.7L684 248.1L685.3 247.4L686.7 246.8L688 246.3L689.3 245.7L690.7 245.3L692 244.8L693.3 244.2L694.7 243.7L696 243L697.3 242.5L698.7 241.9L700 241.3L701.3 240.7L702.7 240.2L704 239.7L705.3 239.1L706.7 238.5L708 237.9L709.3 237.3L710.7 236.9L712 236.4L713.3 235.9L714.7 235.3L716 234.6L717.3 234.1L718.7 233.5L720 232.9L721.3 232.4L722.7 231.8L724 231.3L725.3 230.7L726.7 230.1L728 229.6L729.3 229.1L730.7 228.4L732 227.9L733.3 227.3L734.7 226.9L736 226.3L737.3 225.8L738.7 225.3L740 224.7L741.3 224.2L742.7 223.6L744 223.1L745.3 222.5L746.7 222.1L748 221.5L749.3 221L750.7 220.5L752 219.9L753.3 219.4L754.7 218.8L756 218.3L757.3 217.6L758.7 217.2L760 216.6L761.3 216.2L762.7 215.5L764 214.9L765.3 214.4L766.7 213.8L768 213.3L769.3 212.6L770.7 212.1L772 211.6L773.3 211.1L774.7 210.6L776 210L777.3 209.5L778.7 208.9L780 208.4L781.3 207.9L782.7 207.4L784 206.9L785.3 206.5L786.7 205.9L788 205.4L789.3 204.8L790.7 204.4L792 203.9L793.3 203.4L794.7 202.9L796 202.4L797.3 202L798.7 201.4L800 201L801.3 200.4L802.7 199.9L804 199.3L805.3 198.8L806.7 198.2L808 197.7L809.3 197.2L810.7 196.6L812 196L813.3 195.4L814.7 194.9L816 194.4L817.3 193.9L818.7 193.4L820 192.9L821.3 192.4L822.7 191.9L824 191.3L825.3 190.8L826.7 190.3L828 189.7L829.3 189.2L830.7 188.6L832 188.1L833.3 187.7L834.7 187.1L836 186.6L837.3 186.1L838.7 185.6L840 185.2L841.3 184.7L842.7 184.2L844 183.7L845.3 183.2L846.7 182.6L848 182.1L849.3 181.5L850.7 181L852 180.5L853.3 180L854.7 179.4L856 178.9L857.3 178.4L858.7 177.9L860 177.4L861.3 176.8L862.7 176.3L864 175.9L865.3 175.3L866.7 174.8L868 174.3L869.3 173.8L870.7 173.2L872 172.7L873.3 172.2L874.7 171.7L876 171.1L877.3 170.6L878.7 170L880 169.6L881.3 169.1L882.7 168.7L884 168.1L885.3 167.6L886.7 167.1L888 166.6L889.3 166.2L890.7 165.7L892 165.2L893.3 164.7L894.7 164.3" fill="none" stroke="#5470c6" stroke-width="2" stroke-linejoin="bevel"></path>
</g>
<g clip-path="url(#zr2-c1)">
<path d="M106.7 645.8L108 645.3L109.3 644.7L110.7 644.1L112 643.6L113.3 643L114.7 642.4L116 641.9L117.3 641.3L118.7 640.8L120 640.2L121.3 639.6L122.7 639.1L124 638.5L125.3 637.9L126.7 637.4L128 636.8L129.3 636.3L130.7 635.7L132 635.1L133.3 634.6L134.7 634L136 633.4L137.3 632.9L138.7 632.3L140 631.7L141.3 631.2L142.7 630.6L144 630.1L145.3 629.5L146.7 628.9L148 628.4L149.3 627.8L150.7 627.2L152 626.7L153.3 626.1L154.7 625.6L156 625L157.3 624.4L158.7 623.9L160 623.3L161.3 622.7L162.7 622.2L164 621.6L165.3 621.1L166.7 620.5L168 619.9L169.3 619.4L170.7 618.8L172 618.2L173.3 617.7L174.7 617.1L176 616.6L177.3 616L178.7 615.4L180 614.9L181.3 614.3L182.7 613.7L184 613.2L185.3 612.6L186.7 612L188 611.5L189.3 610.9L190.7 610.4L192 609.8L193.3 609.2L194.7 608.7L196 608.1L197.3 607.5L198.7 607L200 606.4L201.3 605.9L202.7 605.3L204 604.7L205.3 604.2L206.7 603.6L208 603L209.3 602.5L210.7 601.9L212 601.4L213.3 600.8L214.7 600.2L216 599.7L217.3 599.1L218.7 598.5L220 598L221.3 597.4L222.7 596.9L224 596.3L225.3 595.7L226.7 595.2L228 594.6L229.3 594L230.7 593.5L232 592.9L233.3 592.4L234.7 591.8L236 591.2L237.3 590.7L238.7 590.1L240 589.5L241.3 589L242.7 588.4L244 587.8L245.3 587.3L246.7 586.7L248 586.2L249.3 585.6L250.7 585L252 584.5L253.3 583.9L254.7 583.3L256 582.8L257.3 582.2L258.7 581.7L260 581.1L261.3 580.5L262.7 580L264 579.4L265.3 578.8L266.7 578.3L268 577.7L269.3 577.2L270.7 576.6L272 576L273.3 575.5L274.7 574.9L276 574.3L277.3 573.8L278.7 573.2L280 572.7L281.3 572.1L282.7 571.5L284 571L285.3 570.4L286.7 569.8L288 569.3L289.3 568.7L290.7 568.2L292 567.6L293.3 567L294.7 566.5L296 565.9L297.3 565.3L298.7 564.8L300 564.2L301.3 563.6L302.7 563.1L304 562.5L305.3 562L306.7 561.4L308 560.8L309.3 560.3L310.7 559.7L312 559.1L313.3 558.6L314.7 558L316 557.5L317.3 556.9L318.7 556.3L320 555.8L321.3 555.2L322.7 554.6L324 554.1L325.3 553.5L326.7 553L328 552.4L329.3 551.8L330.7 551.3L332 550.7L333.3 550.1L334.7 549.6L336 549L337.3 548.5L338.7 547.9L340 547.3L341.3 546.8L342.7 546.2L344 545.6L345.3 545.1L346.7 544.5L348 543.9L349.3 543.4L350.7 542.8L352 542.3L353.3 541.7L354.7 541.1L356 540.6L357.3 540L358.7 539.4L360 538.9L361.3 538.3L362.7 537.8L364 537.2L365.3 536.6L366.7 536.1L368 535.5L369.3 534.9L370.7 534.4L372 533.8L373.3 533.3L374.7 532.7L376 532.1L377.3 531.6L378.7 531L380 530.4L381.3 529.9L382.7 529.3L384 528.8L385.3 528.2L386.7 527.6L388 527.1L389.3 526.5L390.7 525.9L392 525.4L393.3 524.8L394.7 524.3L396 523.7L397.3 523.1L398.7 522.6L400 522L401.3 521.4L402.7 520.9L404 520.3L405.3 519.7L406.7 519.2L408 518.6L409.3 518.1L410.7 517.5L412 516.9L413.3 516.4L414.7 515.8L416 515.2L417.3 514.7L418.7 514.1L420 513.6L421.3 513L422.7 512.4L424 511.9L425.3 511.3L426.7 510.7L428 510.2L429.3 509.6L430.7 509.1L432 508.5L433.3 507.9L434.7 507.4L436 506.8L437.3 506.2L438.7 505.7L440 505.1L441.3 504.6L442.7 504L444 503.4L445.3 502.9L446.7 502.3L448 501.7L449.3 501.2L450.7 500.6L452 500.1L453.3 499.5L454.7 498.9L456 498.4L457.3 497.8L458.7 497.2L460 496.7L461.3 496.1L462.7 495.5L464 495L465.3 494.4L466.7 493.9L468 493.3L469.3 492.7L470.7 492.2L472 491.6L473.3 491L474.7 490.5L476 489.9L477.3 489.4L478.7 488.8L480 488.2L481.3 487.7L482.7 487.1L484 486.5L485.3 486L486.7 485.4L488 484.9L489.3 484.3L490.7 483.7L492 483.2L493.3 482.6L494.7 482L496 481.5L497.3 480.9L498.7 480.4L500 479.8L501.3 479.2L502.7 478.7L504 478.1L505.3 477.5L506.7 477L508 476.4L509.3 475.8L510.7 475.3L512 474.7L513.3 474.2L514.7 473.6L516 473L517.3 472.5L518.7 471.9L520 471.3L521.3 470.8L522.7 470.2L524 469.7L525.3 469.1L526.7 468.5L528 468L529.3 467.4L530.7 466.8L532 466.3L533.3 465.7L534.7 465.2L536 464.6L537.3 464L538.7 463.5L540 462.9L541.3 462.3L542.7 461.8L544 461.2L545.3 460.7L546.7 460.1L548 459.5L549.3 459L550.7 458.4L552 457.8L553.3 457.3L554.7 456.7L556 456.2L557.3 455.6L558.7 455L560 454.5L561.3 453.9L562.7 453.3L564 452.8L565.3 452.2L566.7 451.6L568 451.1L569.3 450.5L570.7 450L572 449.4L573.3 448.8L574.7 448.3L576 447.7L577.3 447.1L578.7 446.6L580 446L581.3 445.5L582.7 444.9L584 444.3L585.3 443.8L586.7 443.2L588 442.6L589.3 442.1L590.7 441.5L592 441L593.3 440.4L594.7 439.8L596 439.3L597.3 438.7L598.7 438.1L600 437.6L601.3 437L602.7 436.5L604 435.9L605.3 435.3L606.7 434.8L608 434.2L609.3 433.6L610.7 433.1L612 432.5L613.3 431.9L614.7 431.4L616 430.8L617.3 430.3L618.7 429.7L620 429.1L621.3 428.6L622.7 428L624 427.4L625.3 426.9L626.7 426.3L628 425.8L629.3 425.2L630.7 424.6L632 424.1L633.3 423.5L634.7 422.9L636 422.4L637.3 421.8L638.7 421.3L640 420.7L641.3 420.1L642.7 419.6L644 419L645.3 418.4L646.7 417.9L648 417.3L649.3 416.8L650.7 416.2L652 415.6L653.3 415.1L654.7 414.5L656 413.9L657.3 413.4L658.7 412.8L660 412.3L661.3 411.7L662.7 411.1L664 410.6L665.3 410L666.7 409.4L668 408.9L669.3 408.3L670.7 407.7L672 407.2L673.3 406.6L674.7 406.1L676 405.5L677.3 404.9L678.7 404.4L680 403.8L681.3 403.2L682.7 402.7L684 402.1L685.3 401.6L686.7 401L688 400.4L689.3 399.9L690.7 399.3L692 398.7L693.3 398.2L694.7 397.6L696 397.1L697.3 396.5L698.7 395.9L700 395.4L701.3 394.8L702.7 394.2L704 393.7L705.3 393.1L706.7 392.6L708 392L709.3 391.4L710.7 390.9L712 390.3L713.3 389.7L714.7 389.2L716 388.6L717.3 388.1L718.7 387.5L720 386.9L721.3 386.4L722.7 385.8L724 385.2L725.3 384.7L726.7 384.1L728 383.5L729.3 383L730.7 382.4L732 381.9L733.3 381.3L734.7 380.7L736 380.2L737.3 379.6L738.7 379L740 378.5L741.3 377.9L742.7 377.4L744 376.8L745.3 376.2L746.7 375.7L748 375.1L749.3 374.5L750.7 374L752 373.4L753.3 372.9L754.7 372.3L756 371.7L757.3 371.2L758.7 370.6L760 370L761.3 369.5L762.7 368.9L764 368.4L765.3 367.8L766.7 367.2L768 366.7L769.3 366.1L770.7 365.5L772 365L773.3 364.4L774.7 363.8L776 363.3L777.3 362.7L778.7 362.2L780 361.6L781.3 361L782.7 360.5L784 359.9L785.3 359.3L786.7 358.8L788 358.2L789.3 357.7L790.7 357.1L792 356.5L793.3 356L794.7 355.4L796 354.8L797.3 354.3L798.7 353.7L800 353.2L801.3 352.6L802.7 352L804 351.5L805.3 350.9L806.7 350.3L808 349.8L809.3 349.2L810.7 348.7L812 348.1L813.3 347.5L814.7 347L816 346.4L817.3 345.8L818.7 345.3L820 344.7L821.3 344.2L822.7 343.6L824 343L825.3 342.5L826.7 341.9L828 341.3L829.3 340.8L830.7 340.2L832 339.6L833.3 339.1L834.7 338.5L836 338L837.3 337.4L838.7 336.8L840 336.3L841.3 335.7L842.7 335.1L844 334.6L845.3 334L846.7 333.5L848 332.9L849.3 332.3L850.7 331.8L852 331.2L853.3 330.6L854.7 330.1L856 329.5L857.3 329L858.7 328.4L860 327.8L861.3 327.3L862.7 326.7L864 326.1L865.3 325.6L866.7 325L868 324.5L869.3 323.9L870.7 323.3L872 322.8L873.3 322.2L874.7 321.6L876 321.1L877.3 320.5L878.7 320L880 319.4L881.3 318.8L882.7 318.3L884 317.7L885.3 317.1L886.7 316.6L888 316L889.3 315.4L890.7 314.9L892 314.3L893.3 313.8L894.7 313.2" fill="none" stroke="#91cc75" stroke-width="2" stroke-linejoin="bevel"></path>
</g>
<g clip-path="url(#zr2-c2)">
<path d="M106.7 470L108 469.5L109.3 468.9L110.7 468.4L112 467.9L113.3 467.4L114.7 466.9L116 466.4L117.3 465.8L118.7 465.3L120 464.8L121.3 464.3L122.7 463.8L124 463.2L125.3 462.7L126.7 462.2L128 461.7L129.3 461.2L130.7 460.7L132 460.1L133.3 459.6L134.7 459.1L136 458.6L137.3 458.1L138.7 457.6L140 457L141.3 456.5L142.7 456L144 455.5L145.3 455L146.7 454.4L148 453.9L149.3 453.4L150.7 452.9L152 452.4L153.3 451.9L154.7 451.3L156 450.8L157.3 450.3L158.7 449.8L160 449.3L161.3 448.7L162.7 448.2L164 447.7L165.3 447.2L166.7 446.7L168 446.2L169.3 445.6L170.7 445.1L172 444.6L173.3 444.1L174.7 443.6L176 443.1L177.3 442.5L178.7 442L180 441.5L181.3 441L182.7 440.5L184 439.9L185.3 439.4L186.7 438.9L188 438.4L189.3 437.9L190.7 437.4L192 436.8L193.3 436.3L194.7 435.8L196 435.3L197.3 434.8L198.7 434.2L200 433.7L201.3 433.2L202.7 432.7L204 432.2L205.3 431.7L206.7 431.1L208 430.6L209.3 430.1L210.7 429.6L212 429.1L213.3 428.6L214.7 428L216 427.5L217.3 427L218.7 426.5L220 426L221.3 425.4L222.7 424.9L224 424.4L225.3 423.9L226.7 423.4L228 422.9L229.3 422.3L230.7 421.8L232 421.3L233.3 420.8L234.7 420.3L236 419.7L237.3 419.2L238.7 418.7L240 418.2L241.3 417.7L242.7 417.2L244 416.6L245.3 416.1L246.7 415.6L248 415.1L249.3 414.6L250.7 414.1L252 413.5L253.3 413L254.7 412.5L256 412L257.3 411.5L258.7 410.9L260 410.4L261.3 409.9L262.7 409.4L264 408.9L265.3 408.4L266.7 407.8L268 407.3L269.3 406.8L270.7 406.3L272 405.8L273.3 405.3L274.7 404.7L276 404.2L277.3 403.7L278.7 403.2L280 402.7L281.3 402.1L282.7 401.6L284 401.1L285.3 400.6L286.7 400.1L288 399.6L289.3 399L290.7 398.5L292 398L293.3 397.5L294.7 397L296 396.4L297.3 395.9L298.7 395.4L300 394.9L301.3 394.4L302.7 393.9L304 393.3L305.3 392.8L306.7 392.3L308 391.8L309.3 391.3L310.7 390.8L312 390.2L313.3 389.7L314.7 389.2L316 388.7L317.3 388.2L318.7 387.6L320 387.1L321.3 386.6L322.7 386.1L324 385.6L325.3 385.1L326.7 384.5L328 384L329.3 383.5L330.7 383L332 382.5L333.3 381.9L334.7 381.4L336 380.9L337.3 380.4L338.7 379.9L340 379.4L341.3 378.8L342.7 378.3L344 377.8L345.3 377.3L346.7 376.8L348 376.3L349.3 375.7L350.7 375.2L352 374.7L353.3 374.2L354.7 373.7L356 373.1L357.3 372.6L358.7 372.1L360 371.6L361.3 371.1L362.7 370.6L364 370L365.3 369.5L366.7 369L368 368.5L369.3 368L370.7 367.5L372 366.9L373.3 366.4L374.7 365.9L376 365.4L377.3 364.9L378.7 364.3L380 363.8L381.3 363.3L382.7 362.8L384 362.3L385.3 361.8L386.7 361.2L388 360.7L389.3 360.2L390.7 359.7L392 359.2L393.3 358.6L394.7 358.1L396 357.6L397.3 357.1L398.7 356.6L400 356.1L401.3 355.5L402.7 355L404 354.5L405.3 354L406.7 353.5L408 353L409.3 352.4L410.7 351.9L412 351.4L413.3 350.9L414.7 350.4L416 349.8L417.3 349.3L418.7 348.8L420 348.3L421.3 347.8L422.7 347.3L424 346.7L425.3 346.2L426.7 345.7L428 345.2L429.3 344.7L430.7 344.1L432 343.6L433.3 343.1L434.7 342.6L436 342.1L437.3 341.6L438.7 341L440 340.5L441.3 340L442.7 339.5L444 339L445.3 338.5L446.7 337.9L448 337.4L449.3 336.9L450.7 336.4L452 335.9L453.3 335.3L454.7 334.8L456 334.3L457.3 333.8L458.7 333.3L460 332.8L461.3 332.2L462.7 331.7L464 331.2L465.3 330.7L466.7 330.2L468 329.7L469.3 329.1L470.7 328.6L472 328.1L473.3 327.6L474.7 327.1L476 326.5L477.3 326L478.7 325.5L480 325L481.3 324.5L482.7 324L484 323.4L485.3 322.9L486.7 322.4L488 321.9L489.3 321.4L490.7 320.8L492 320.3L493.3 319.8L494.7 319.3L496 318.8L497.3 318.3L498.7 317.7L500 317.2L501.3 316.7L502.7 316.2L504 315.7L505.3 315.2L506.7 314.6L508 314.1L509.3 313.6L510.7 313.1L512 312.6L513.3 312L514.7 311.5L516 311L517.3 310.5L518.7 310L520 309.5L521.3 308.9L522.7 308.4L524 307.9L525.3 307.4L526.7 306.9L528 306.3L529.3 305.8L530.7 305.3L532 304.8L533.3 304.3L534.7 303.8L536 303.2L537.3 302.7L538.7 302.2L540 301.7L541.3 301.2L542.7 300.7L544 300.1L545.3 299.6L546.7 299.1L548 298.6L549.3 298.1L550.7 297.5L552 297L553.3 296.5L554.7 296L556 295.5L557.3 295L558.7 294.4L560 293.9L561.3 293.4L562.7 292.9L564 292.4L565.3 291.9L566.7 291.3L568 290.8L569.3 290.3L570.7 289.8L572 289.3L573.3 288.7L574.7 288.2L576 287.7L577.3 287.2L578.7 286.7L580 286.2L581.3 285.6L582.7 285.1L584 284.6L585.3 284.1L586.7 283.6L588 283L589.3 282.5L590.7 282L592 281.5L593.3 281L594.7 280.5L596 279.9L597.3 279.4L598.7 278.9L600 278.4L601.3 277.9L602.7 277.4L604 276.8L605.3 276.3L606.7 275.8L608 275.3L609.3 274.8L610.7 274.2L612 273.7L613.3 273.2L614.7 272.7L616 272.2L617.3 271.7L618.7 271.1L620 270.6L621.3 270.1L622.7 269.6L624 269.1L625.3 268.5L626.7 268L628 267.5L629.3 267L630.7 266.5L632 266L633.3 265.4L634.7 264.9L636 264.4L637.3 263.9L638.7 263.4L640 262.9L641.3 262.3L642.7 261.8L644 261.3L645.3 260.8L646.7 260.3L648 259.7L649.3 259.2L650.7 258.7L652 258.2L653.3 257.7L654.7 257.2L656 256.6L657.3 256.1L658.7 255.6L660 255.1L661.3 254.6L662.7 254.1L664 253.5L665.3 253L666.7 252.5L668 252L669.3 251.5L670.7 250.9L672 250.4L673.3 249.9L674.7 249.4L676 248.9L677.3 248.4L678.7 247.8L680 247.3L681.3 246.8L682.7 246.3L684 245.8L685.3 245.2L686.7 244.7L688 244.2L689.3 243.7L690.7 243.2L692 242.7L693.3 242.1L694.7 241.6L696 241.1L697.3 240.6L698.7 240.1L700 239.6L701.3 239L702.7 238.5L704 238L705.3 237.5L706.7 237L708 236.4L709.3 235.9L710.7 235.4L712 234.9L713.3 234.4L714.7 233.9L716 233.3L717.3 232.8L718.7 232.3L720 231.8L721.3 231.3L722.7 230.7L724 230.2L725.3 229.7L726.7 229.2L728 228.7L729.3 228.2L730.7 227.6L732 227.1L733.3 226.6L734.7 226.1L736 225.6L737.3 225.1L738.7 224.5L740 224L741.3 223.5L742.7 223L744 222.5L745.3 221.9L746.7 221.4L748 220.9L749.3 220.4L750.7 219.9L752 219.4L753.3 218.8L754.7 218.3L756 217.8L757.3 217.3L758.7 216.8L760 216.2L761.3 215.7L762.7 215.2L764 214.7L765.3 214.2L766.7 213.7L768 213.1L769.3 212.6L770.7 212.1L772 211.6L773.3 211.1L774.7 210.6L776 210L777.3 209.5L778.7 209L780 208.5L781.3 208L782.7 207.4L784 206.9L785.3 206.4L786.7 205.9L788 205.4L789.3 204.9L790.7 204.3L792 203.8L793.3 203.3L794.7 202.8L796 202.3L797.3 201.8L798.7 201.2L800 200.7L801.3 200.2L802.7 199.7L804 199.2L805.3 198.6L806.7 198.1L808 197.6L809.3 197.1L810.7 196.6L812 196.1L813.3 195.5L814.7 195L816 194.5L817.3 194L818.7 193.5L820 192.9L821.3 192.4L822.7 191.9L824 191.4L825.3 190.9L826.7 190.4L828 189.8L829.3 189.3L830.7 188.8L832 188.3L833.3 187.8L834.7 187.3L836 186.7L837.3 186.2L838.7 185.7L840 185.2L841.3 184.7L842.7 184.1L844 183.6L845.3 183.1L846.7 182.6L848 182.1L849.3 181.6L850.7 181L852 180.5L853.3 180L854.7 179.5L856 179L857.3 178.4L858.7 177.9L860 177.4L861.3 176.9L862.7 176.4L864 175.9L865.3 175.3L866.7 174.8L868 174.3L869.3 173.8L870.7 173.3L872 172.8L873.3 172.2L874.7 171.7L876 171.2L877.3 170.7L878.7 170.2L880 169.6L881.3 169.1L882.7 168.6L884 168.1L885.3 167.6L886.7 167.1L888 166.5L889.3 166L890.7 165.5L892 165L893.3 164.5L894.7 164" fill="none" stroke="#fac858" stroke-width="2" stroke-linejoin="bevel"></path>
</g>
<path d="M-0.54 -0.89A0.6 0.6 0 1 1 0.54 -0.89C0.39 -0.56 0 -0.42 0 0C0 -0.42 -0.39 -0.56 -0.54 -0.89Z" transform="matrix(25,0,0,25,500,479.7888)" fill="#91cc75"></path>
<path d="M-0.54 -0.89A0.6 0.6 0 1 1 0.54 -0.89C0.39 -0.56 0 -0.42 0 0C0 -0.42 -0.39 -0.56 -0.54 -0.89Z" transform="matrix(25,0,0,25,500,317.2231)" fill="#fac858"></path>
<text dominant-baseline="central" text-anchor="middle" style="font-size:12px;font-family:sans-serif;" transform="translate(500 453.6459)" fill="#333">-2.3</text>
<text dominant-baseline="central" text-anchor="middle" style="font-size:12px;font-family:sans-serif;" transform="translate(500 291.0802)" fill="#333">2.1</text>
<defs >
<clipPath id="zr2-c0">
<path d="M99 59l802 0l0 672l-802 0Z" fill="#000"></path>
</clipPath>
<clipPath id="zr2-c1">
<path d="M99 59l802 0l0 672l-802 0Z" fill="#000"></path>
</clipPath>
<clipPath id="zr2-c2">
<path d="M99 59l802 0l0 672l-802 0Z" fill="#000"></path>
</clipPath>
</defs>
</svg>