<svg width="1000" height="800" xmlns="http://www.w3.org/2000/svg" xmlns:xlink="http://www.w3.org/1999/xlink" version="1.1" baseProfile="full" viewBox="0 0 1000 800">
<rect width="1000" height="800" x="0" y="0" id="0" fill="none"></rect>
<path d="M100 730.5L900 730.5" fill="none" stroke="#E0E6F1"></path>
<path d="M100 646.5L900 646.5" fill="none" stroke="#E0E6F1"></path>
<path d="M100 562.5L900 562.5" fill="none" stroke="#E0E6F1"></path>
<path d="M100 479.5L900 479.5" fill="none" stroke="#E0E6F1"></path>
<path d="M100 395.5L900 395.5" fill="none" stroke="#E0E6F1"></path>
<path d="M100 311.5L900 311.5" fill="none" stroke="#E0E6F1"></path>
<path d="M100 227.5L900 227.5" fill="none" stroke="#E0E6F1"></path>
<path d="M100 144.5L900 144.5" fill="none" stroke="#E0E6F1"></path>
<path d="M100 60.5L900 60.5" fill="none" stroke="#E0E6F1"></path>
<path d="M100.5 60L100.5 730" fill="none" stroke="#E0E6F1"></path>
<path d="M233.5 60L233.5 730" fill="none" stroke="#E0E6F1"></path>
<path d="M366.5 60L366.5 730" fill="none" stroke="#E0E6F1"></path>
<path d="M500.5 60L500.5 730" fill="none" stroke="#E0E6F1"></path>
<path d="M633.5 60L633.5 730" fill="none" stroke="#E0E6F1"></path>
<path d="M766.5 60L766.5 730" fill="none" stroke="#E0E6F1"></path>
<path d="M900.5 60L900.5 730" fill="none" stroke="#E0E6F1"></path>
<path d="M500.5 730L500.5 60" fill="none" stroke="#6E7079" stroke-linecap="round"></path>
<text dominant-baseline="central" text-anchor="middle" style="font-size:12px;font-family:sans-serif;" xml:space="preserve" y="-6" transform="translate(500 45)" fill="#6E7079">Ig in muA</text>
<path d="M100 395.5L900 395.5" fill="none" stroke="#6E7079" stroke-linecap="round"></path>
<text dominant-baseline="central" text-anchor="start" style="font-size:12px;font-family:sans-serif;" xml:space="preserve" transform="translate(915 395)" fill="#6E7079">U in V</text>
<path d="M500 730.5L495 730.5" fill="none" stroke="#6E7079"></path>
<path d="M500 646.5L495 646.5" fill="none" stroke="#6E7079"></path>
<path d="M500 562.5L495 562.5" fill="none" stroke="#6E7079"></path>
<path d="M500 479.5L495 479.5" fill="none" stroke="#6E7079"></path>
<path d="M500 395.5L495 395.5" fill="none" stroke="#6E7079"></path>
<path d="M500 311.5L495 311.5" fill="none" stroke="#6E7079"></path>
<path d="M500 227.5L495 227.5" fill="none" stroke="#6E7079"></path>
<path d="M500 144.5L495 144.5" fill="none" stroke="#6E7079"></path>
<path d="M500 60.5L495 60.5" fill="none" stroke="#6E7079"></path>
<path d="M100.5 395L100.5 400" fill="none" stroke="#6E7079"></path>
<path d="M233.5 395L233.5 400" fill="none" stroke="#6E7079"></path>
<path d="M366.5 395L366.5 400" fill="none" stroke="#6E7079"></path>
<path d="M500.5 395L500.5 400" fill="none" stroke="#6E7079"></path>
<path d="M633.5 395L633.5 400" fill="none" stroke="#6E7079"></path>
<path d="M766.5 395L766.5 400" fill="none" stroke="#6E7079"></path>
<path d="M900.5 395L900.5 400" fill="none" stroke="#6E7079"></path>
<text dominant-baseline="central" text-anchor="end" style="font-size:12px;font-family:sans-serif;" transform="translate(92 730)" fill="#6E7079">-4</text>
<text dominant-baseline="central" text-anchor="end" style="font-size:12px;font-family:sans-serif;" transform="translate(92 646.25)" fill="#6E7079">-3</text>
<text dominant-baseline="central" text-anchor="end" style="font-size:12px;font-family:sans-serif;" transform="translate(92 562.5)" fill="#6E7079">-2</text>
<text dominant-baseline="central" text-anchor="end" style="font-size:12px;font-family:sans-serif;" transform="translate(92 478.75)" fill="#6E7079">-1</text>
<text dominant-baseline="central" text-anchor="end" style="font-size:12px;font-family:sans-serif;" transform="translate(92 395)" fill="#6E7079">0</text>
<text dominant-baseline="central" text-anchor="end" style="font-size:12px;font-family:sans-serif;" transform="translate(92 311.25)" fill="#6E7079">1</text>
<text dominant-baseline="central" text-anchor="end" style="font-size:12px;font-family:sans-serif;" transform="translate(92 227.5)" fill="#6E7079">2</text>
<text dominant-baseline="central" text-anchor="end" style="font-size:12px;font-family:sans-serif;" transform="translate(92 143.75)" fill="#6E7079">3</text>
<text dominant-baseline="central" text-anchor="end" style="font-size:12px;font-family:sans-serif;" transform="translate(92 60)" fill="#6E7079">4</text>
<text dominant-baseline="central" text-anchor="middle" style="font-size:12px;font-family:sans-serif;" y="6" transform="translate(100 738)" fill="#6E7079">-30</text>
<text dominant-baseline="central" text-anchor="middle" style="font-size:12px;font-family:sans-serif;" y="6" transform="translate(233.3333 738)" fill="#6E7079">-20</text>
<text dominant-baseline="central" text-anchor="middle" style="font-size:12px;font-family:sans-serif;" y="6" transform="translate(366.6667 738)" fill="#6E7079">-10</text>
<text dominant-baseline="central" text-anchor="middle" style="font-size:12px;font-family:sans-serif;" y="6" transform="translate(500 738)" fill="#6E7079">0</text>
<text dominant-baseline="central" text-anchor="middle" style="font-size:12px;font-family:sans-serif;" y="6" transform="translate(633.3333 738)" fill="#6E7079">10</text>
<text dominant-baseline="central" text-anchor="middle" style="font-size:12px;font-family:sans-serif;" y="6" transform="translate(766.6667 738)" fill="#6E7079">20</text>
<text dominant-baseline="central" text-anchor="middle" style="font-size:12px;font-family:sans-serif;" y="6" transform="translate(900 738)" fill="#6E7079">30</text>
<g clip-path="url(#zr0-c0)">
<path d="M106.7 705.2L108 704.5L109.3 703.7L110.7 703L112 702.3L113.3 701.5L114.7 700.7L116 700L117.3 699.3L118.7 698.6L120 697.9L121.3 697.1L122.7 696.3L124 695.6L125.3 695L126.7 694.3L128 693.8L129.3 693.1L130.7 692.4L132 691.7L133.3 691L134.7 690.3L136 689.7L137.3 689L138.7 688.2L140 687.6L141.3 686.8L142.7 686.2L144 685.5L145.3 684.8L146.7 684.1L148 683.4L149.3 682.8L150.7 682.2L152 681.6L153.3 680.9L154.7 680.2L156 679.5L157.3 678.7L158.7 678L160 677.3L161.3 676.6L162.7 676L164 675.3L165.3 674.6L166.7 674L168 673.3L169.3 672.6L170.7 671.9L172 671.2L173.3 670.5L174.7 669.8L176 669.1L177.3 668.4L178.7 667.7L180 667L181.3 666.3L182.7 665.5L184 664.9L185.3 664.3L186.7 663.7L188 662.9L189.3 662.3L190.7 661.4L192 660.7L193.3 660L194.7 659.3L196 658.6L197.3 658L198.7 657.2L200 656.4L201.3 655.7L202.7 655L204 654.4L205.3 653.7L206.7 653.1L208 652.3L209.3 651.6L210.7 650.9L212 650.1L213.3 649.3L214.7 648.5L216 647.8L217.3 647L218.7 646.5L220 645.6L221.3 644.9L222.7 644.2L224 643.5L225.3 642.7L226.7 642L228 641.3L229.3 640.5L230.7 639.7L232 638.9L233.3 638.1L234.7 637.3L236 636.6L237.3 635.8L238.7 635L240 634.2L241.3 633.5L242.7 632.7L244 631.9L245.3 631.2L246.7 630.5L248 629.8L249.3 629L250.7 628.3L252 627.4L253.3 626.6L254.7 625.9L256 625.2L257.3 624.4L258.7 623.5L260 622.8L261.3 622L262.7 621.2L264 620.5L265.3 619.6L266.7 618.8L268 618L269.3 617.3L270.7 616.4L272 615.6L273.3 614.8L274.7 614L276 613.2L277.3 612.4L278.7 611.5L280 610.7L281.3 610L282.7 609L284 608.1L285.3 607.3L286.7 606.6L288 605.8L289.3 604.9L290.7 604L292 603.2L293.3 602.3L294.7 601.5L296 600.7L297.3 599.8L298.7 599L300 598.2L301.3 597.4L302.7 596.4L304 595.6L305.3 594.7L306.7 593.8L308 592.9L309.3 592L310.7 591.2L312 590.4L313.3 589.6L314.7 588.7L316 587.8L317.3 587L318.7 586.1L320 585.2L321.3 584.3L322.7 583.5L324 582.6L325.3 581.7L326.7 580.8L328 580L329.3 579.1L330.7 578.2L332 577.3L333.3 576.4L334.7 575.4L336 574.5L337.3 573.5L338.7 572.6L340 571.7L341.3 570.7L342.7 569.8L344 568.8L345.3 567.9L346.7 566.9L348 566L349.3 565L350.7 564L352 563.1L353.3 562L354.7 561L356 560L357.3 559L358.7 558L360 557L361.3 556L362.7 555.1L364 554.2L365.3 553.2L366.7 552.2L368 551.2L369.3 550.2L370.7 549.1L372 548.1L373.3 547.1L374.7 546.1L376 545L377.3 544L378.7 543L380 541.9L381.3 540.9L382.7 539.8L384 538.7L385.3 537.6L386.7 536.6L388 535.5L389.3 534.4L390.7 533.2L392 532L393.3 530.9L394.7 529.8L396 528.6L397.3 527.4L398.7 526.3L400 525.1L401.3 523.9L402.7 522.8L404 521.6L405.3 520.4L406.7 519.2L408 517.9L409.3 516.6L410.7 515.4L412 514.1L413.3 512.9L414.7 511.6L416 510.3L417.3 509L418.7 507.7L420 506.4L421.3 505.1L422.7 503.8L424 502.4L425.3 501.1L426.7 499.7L428 498.2L429.3 496.8L430.7 495.3L432 493.9L433.3 492.4L434.7 490.9L436 489.4L437.3 487.9L438.7 486.3L440 484.8L441.3 483.2L442.7 481.6L444 479.9L445.3 478.3L446.7 476.6L448 474.9L449.3 473.2L450.7 471.4L452 469.6L453.3 467.8L454.7 466L456 464.1L457.3 462.3L458.7 460.4L460 458.5L461.3 456.5L462.7 454.5L464 452.6L465.3 450.6L466.7 448.6L468 446.5L469.3 444.5L470.7 442.4L472 440.2L473.3 438.1L474.7 435.9L476 433.7L477.3 431.6L478.7 429.3L480 427.1L481.3 424.8L482.7 422.5L484 420.2L485.3 417.9L486.7 415.5L488 413.2L489.3 410.8L490.7 408.4L492 406L493.3 403.6L494.7 401.2L496 398.7L497.3 396.3L498.7 393.8L500 391.4L501.3 388.9L502.7 386.5L504 384.1L505.3 381.6L506.7 379.2L508 376.7L509.3 374.3L510.7 371.9L512 369.5L513.3 367.1L514.7 364.7L516 362.4L517.3 360L518.7 357.7L520 355.4L521.3 353.1L522.7 350.8L524 348.6L525.3 346.3L526.7 344.1L528 341.9L529.3 339.8L530.7 337.6L532 335.5L533.3 333.3L534.7 331.4L536 329.4L537.3 327.5L538.7 325.6L540 323.7L541.3 321.8L542.7 319.9L544 318.1L545.3 316.2L546.7 314.3L548 312.6L549.3 310.9L550.7 309L552 307.3L553.3 305.6L554.7 303.9L556 302.2L557.3 300.7L558.7 299L560 297.4L561.3 295.8L562.7 294.3L564 292.7L565.3 291L566.7 289.5L568 288L569.3 286.5L570.7 285.1L572 283.7L573.3 282.4L574.7 281L576 279.6L577.3 278.2L578.7 277L580 275.6L581.3 274.4L582.7 273.2L584 272L585.3 270.7L586.7 269.4L588 268.3L589.3 267.1L590.7 265.8L592 264.8L593.3 263.7L594.7 262.4L596 261.3L597.3 260.2L598.7 259.1L600 257.9L601.3 256.8L602.7 255.9L604 254.9L605.3 253.8L606.7 252.8L608 251.7L609.3 250.8L610.7 249.8L612 248.7L613.3 247.7L614.7 246.8L616 245.8L617.3 244.9L618.7 243.9L620 242.8L621.3 241.8L622.7 241L624 240L625.3 239.2L626.7 238.2L628 237.2L629.3 236.2L630.7 235.2L632 234.2L633.3 233.4L634.7 232.4L636 231.6L637.3 230.7L638.7 229.8L640 228.8L641.3 228L642.7 227.1L644 226.2L645.3 225.4L646.7 224.4L648 223.6L649.3 222.7L650.7 221.9L652 220.9L653.3 220L654.7 219.1L656 218.3L657.3 217.5L658.7 216.7L660 215.8L661.3 214.9L662.7 214.1L664 213.3L665.3 212.5L666.7 211.8L668 211.1L669.3 210.3L670.7 209.4L672 208.7L673.3 207.8L674.7 207.1L676 206.2L677.3 205.5L678.7 204.7L680 204L681.3 203.3L682.7 202.4L684 201.7L685.3 201L686.7 200.2L688 199.6L689.3 198.8L690.7 198L692 197.1L693.3 196.2L694.7 195.4L696 194.6L697.3 193.9L698.7 193.1L700 192.3L701.3 191.4L702.7 190.6L704 189.9L705.3 189L706.7 188.3L708 187.5L709.3 186.7L710.7 186.1L712 185.3L713.3 184.6L714.7 183.9L716 183.1L717.3 182.4L718.7 181.7L720 181L721.3 180.3L722.7 179.5L724 178.7L725.3 177.9L726.7 177.2L728 176.6L729.3 175.8L730.7 175.1L732 174.3L733.3 173.6L734.7 172.7L736 172.1L737.3 171.3L738.7 170.6L740 169.7L741.3 168.8L742.7 168.1L744 167.3L745.3 166.4L746.7 165.7L748 164.9L749.3 164.1L750.7 163.5L752 162.7L753.3 161.9L754.7 161.2L756 160.2L757.3 159.6L758.7 158.9L760 158.2L761.3 157.6L762.7 156.8L764 156L765.3 155.3L766.7 154.5L768 153.8L769.3 153.2L770.7 152.4L772 151.8L773.3 151L774.7 150.3L776 149.6L777.3 148.9L778.7 148.2L780 147.5L781.3 146.9L782.7 146.1L784 145.6L785.3 144.8L786.7 144.1L788 143.3L789.3 142.5L790.7 141.9L792 141.1L793.3 140.3L794.7 139.6L796 138.8L797.3 138.1L798.7 137.4L800 136.6L801.3 136.1L802.7 135.4L804 134.7L805.3 133.9L806.7 133.2L808 132.5L809.3 131.8L810.7 131.2L812 130.6L813.3 129.9L814.7 129.3L816 128.5L817.3 127.9L818.7 127.3L820 126.7L821.3 126.1L822.7 125.4L824 124.8L825.3 124.2L826.7 123.4L828 122.8L829.3 122L830.7 121.2L832 120.5L833.3 119.8L834.7 119.2L836 118.5L837.3 117.8L838.7 117L840 116.2L841.3 115.6L842.7 114.9L844 114.3L845.3 113.6L846.7 113L848 112.3L849.3 111.6L850.7 110.8L852 110.2L853.3 109.4L854.7 109L856 108.3L857.3 107.8L858.7 107.3L860 106.6L861.3 106.1L862.7 105.4L864 104.8L865.3 104.1L866.7 103.6L868 103L869.3 102.4L870.7 101.7L872 101.1L873.3 100.4L874.7 99.7L876 99.1L877.3 98.4L878.7 97.9L880 97.2L881.3 96.5L882.7 95.7L884 95L885.3 94.2L886.7 93.5L888 92.7L889.3 92L890.7 91.2L892 90.5L893.3 89.7L894.7 89" fill="none" stroke="#5470c6" stroke-width="2" stroke-linejoin="bevel"></path>
</g>
<g clip-path="url(#zr0-c1)">
<path d="M106.7 705.2L108 704.5L109.3 703.8L110.7 703.1L112 702.4L113.3 701.7L114.7 701L116 700.3L117.3 699.6L118.7 698.9L120 698.2L121.3 697.5L122.7 696.8L124 696.1L125.3 695.4L126.7 694.7L128 694L129.3 693.3L130.7 692.6L132 691.9L133.3 691.2L134.7 690.5L136 689.8L137.3 689.1L138.7 688.4L140 687.7L141.3 687L142.7 686.3L144 685.6L145.3 684.9L146.7 684.2L148 683.5L149.3 682.8L150.7 682.1L152 681.4L153.3 680.7L154.7 680L156 679.3L157.3 678.6L158.7 677.9L160 677.2L161.3 676.5L162.7 675.8L164 675.1L165.3 674.4L166.7 673.7L168 673L169.3 672.3L170.7 671.6L172 670.9L173.3 670.2L174.7 669.5L176 668.8L177.3 668.1L178.7 667.4L180 666.7L181.3 666L182.7 665.3L184 664.6L185.3 663.9L186.7 663.2L188 662.5L189.3 661.8L190.7 661.1L192 660.4L193.3 659.7L194.7 659L196 658.3L197.3 657.6L198.7 656.9L200 656.2L201.3 655.5L202.7 654.8L204 654.1L205.3 653.4L206.7 652.7L208 652L209.3 651.3L210.7 650.6L212 649.9L213.3 649.2L214.7 648.5L216 647.8L217.3 647.1L218.7 646.4L220 645.7L221.3 645L222.7 644.3L224 643.6L225.3 642.9L226.7 642.2L228 641.5L229.3 640.8L230.7 640.1L232 639.4L233.3 638.7L234.7 638L236 637.3L237.3 636.6L238.7 635.9L240 635.2L241.3 634.5L242.7 633.8L244 633.1L245.3 632.4L246.7 631.7L248 631L249.3 630.3L250.7 629.6L252 628.9L253.3 628.2L254.7 627.5L256 626.9L257.3 626.2L258.7 625.5L260 624.8L261.3 624.1L262.7 623.4L264 622.7L265.3 622L266.7 621.3L268 620.6L269.3 619.9L270.7 619.2L272 618.5L273.3 617.8L274.7 617.1L276 616.4L277.3 615.7L278.7 615L280 614.3L281.3 613.6L282.7 612.9L284 612.2L285.3 611.5L286.7 610.8L288 610.1L289.3 609.4L290.7 608.7L292 608L293.3 607.3L294.7 606.6L296 605.9L297.3 605.2L298.7 604.5L300 603.8L301.3 603.1L302.7 602.4L304 601.7L305.3 601L306.7 600.3L308 599.6L309.3 598.9L310.7 598.2L312 597.5L313.3 596.8L314.7 596.1L316 595.4L317.3 594.7L318.7 594L320 593.3L321.3 592.6L322.7 591.9L324 591.2L325.3 590.5L326.7 589.8L328 589.1L329.3 588.4L330.7 587.7L332 587L333.3 586.3L334.7 585.6L336 584.9L337.3 584.2L338.7 583.5L340 582.8L341.3 582.1L342.7 581.4L344 580.7L345.3 580L346.7 579.3L348 578.6L349.3 577.9L350.7 577.2L352 576.5L353.3 575.8L354.7 575.1L356 574.4L357.3 573.7L358.7 573L360 572.3L361.3 571.6L362.7 570.9L364 570.2L365.3 569.5L366.7 568.8L368 568.1L369.3 567.4L370.7 566.7L372 566L373.3 565.3L374.7 564.6L376 563.9L377.3 563.2L378.7 562.5L380 561.8L381.3 561.1L382.7 560.4L384 559.7L385.3 559L386.7 558.3L388 557.6L389.3 556.9L390.7 556.2L392 555.5L393.3 554.8L394.7 554.1L396 553.4L397.3 552.7L398.7 552L400 551.3L401.3 550.6L402.7 549.9L404 549.2L405.3 548.5L406.7 547.8L408 547.1L409.3 546.4L410.7 545.7L412 545L413.3 544.3L414.7 543.6L416 542.9L417.3 542.2L418.7 541.5L420 540.8L421.3 540.1L422.7 539.4L424 538.7L425.3 538L426.7 537.3L428 536.6L429.3 535.9L430.7 535.2L432 534.5L433.3 533.8L434.7 533.1L436 532.4L437.3 531.7L438.7 531.1L440 530.4L441.3 529.7L442.7 529L444 528.3L445.3 527.6L446.7 526.9L448 526.2L449.3 525.5L450.7 524.8L452 524.1L453.3 523.4L454.7 522.7L456 522L457.3 521.3L458.7 520.6L460 519.9L461.3 519.2L462.7 518.5L464 517.8L465.3 517.1L466.7 516.4L468 515.7L469.3 515L470.7 514.3L472 513.6L473.3 512.9L474.7 512.2L476 511.5L477.3 510.8L478.7 510.1L480 509.4L481.3 508.7L482.7 508L484 507.3L485.3 506.6L486.7 505.9L488 505.2L489.3 504.5L490.7 503.8L492 503.1L493.3 502.4L494.7 501.7L496 501L497.3 500.3L498.7 499.6L500 498.9L501.3 498.2L502.7 497.5L504 496.8L505.3 496.1L506.7 495.4L508 494.7L509.3 494L510.7 493.3L512 492.6L513.3 491.9L514.7 491.2L516 490.5L517.3 489.8L518.7 489.1L520 488.4L521.3 487.7L522.7 487L524 486.3L525.3 485.6L526.7 484.9L528 484.2L529.3 483.5L530.7 482.8L532 482.1L533.3 481.4L534.7 480.7L536 480L537.3 479.3L538.7 478.6L540 477.9L541.3 477.2L542.7 476.5L544 475.8L545.3 475.1L546.7 474.4L548 473.7L549.3 473L550.7 472.3L552 471.6L553.3 470.9L554.7 470.2L556 469.5L557.3 468.8L558.7 468.1L560 467.4L561.3 466.7L562.7 466L564 465.3L565.3 464.6L566.7 463.9L568 463.2L569.3 462.5L570.7 461.8L572 461.1L573.3 460.4L574.7 459.7L576 459L577.3 458.3L578.7 457.6L580 456.9L581.3 456.2L582.7 455.5L584 454.8L585.3 454.1L586.7 453.4L588 452.7L589.3 452L590.7 451.3L592 450.6L593.3 449.9L594.7 449.2L596 448.5L597.3 447.8L598.7 447.1L600 446.4L601.3 445.7L602.7 445L604 444.3L605.3 443.6L606.7 442.9L608 442.2L609.3 441.5L610.7 440.8L612 440.1L613.3 439.4L614.7 438.7L616 438L617.3 437.3L618.7 436.6L620 435.9L621.3 435.3L622.7 434.6L624 433.9L625.3 433.2L626.7 432.5L628 431.8L629.3 431.1L630.7 430.4L632 429.7L633.3 429L634.7 428.3L636 427.6L637.3 426.9L638.7 426.2L640 425.5L641.3 424.8L642.7 424.1L644 423.4L645.3 422.7L646.7 422L648 421.3L649.3 420.6L650.7 419.9L652 419.2L653.3 418.5L654.7 417.8L656 417.1L657.3 416.4L658.7 415.7L660 415L661.3 414.3L662.7 413.6L664 412.9L665.3 412.2L666.7 411.5L668 410.8L669.3 410.1L670.7 409.4L672 408.7L673.3 408L674.7 407.3L676 406.6L677.3 405.9L678.7 405.2L680 404.5L681.3 403.8L682.7 403.1L684 402.4L685.3 401.7L686.7 401L688 400.3L689.3 399.6L690.7 398.9L692 398.2L693.3 397.5L694.7 396.8L696 396.1L697.3 395.4L698.7 394.7L700 394L701.3 393.3L702.7 392.6L704 391.9L705.3 391.2L706.7 390.5L708 389.8L709.3 389.1L710.7 388.4L712 387.7L713.3 387L714.7 386.3L716 385.6L717.3 384.9L718.7 384.2L720 383.5L721.3 382.8L722.7 382.1L724 381.4L725.3 380.7L726.7 380L728 379.3L729.3 378.6L730.7 377.9L732 377.2L733.3 376.5L734.7 375.8L736 375.1L737.3 374.4L738.7 373.7L740 373L741.3 372.3L742.7 371.6L744 370.9L745.3 370.2L746.7 369.5L748 368.8L749.3 368.1L750.7 367.4L752 366.7L753.3 366L754.7 365.3L756 364.6L757.3 363.9L758.7 363.2L760 362.5L761.3 361.8L762.7 361.1L764 360.4L765.3 359.7L766.7 359L768 358.3L769.3 357.6L770.7 356.9L772 356.2L773.3 355.5L774.7 354.8L776 354.1L777.3 353.4L778.7 352.7L780 352L781.3 351.3L782.7 350.6L784 349.9L785.3 349.2L786.7 348.5L788 347.8L789.3 347.1L790.7 346.4L792 345.7L793.3 345L794.7 344.3L796 343.6L797.3 342.9L798.7 342.2L800 341.5L801.3 340.8L802.7 340.2L804 339.5L805.3 338.8L806.7 338.1L808 337.4L809.3 336.7L810.7 336L812 335.3L813.3 334.6L814.7 333.9L816 333.2L817.3 332.5L818.7 331.8L820 331.1L821.3 330.4L822.7 329.7L824 329L825.3 328.3L826.7 327.6L828 326.9L829.3 326.2L830.7 325.5L832 324.8L833.3 324.1L834.7 323.4L836 322.7L837.3 322L838.7 321.3L840 320.6L841.3 319.9L842.7 319.2L844 318.5L845.3 317.8L846.7 317.1L848 316.4L849.3 315.7L850.7 315L852 314.3L853.3 313.6L854.7 312.9L856 312.2L857.3 311.5L858.7 310.8L860 310.1L861.3 309.4L862.7 308.7L864 308L865.3 307.3L866.7 306.6L868 305.9L869.3 305.2L870.7 304.5L872 303.8L873.3 303.1L874.7 302.4L876 301.7L877.3 301L878.7 300.3L880 299.6L881.3 298.9L882.7 298.2L884 297.5L885.3 296.8L886.7 296.1L888 295.4L889.3 294.7L890.7 294L892 293.3L893.3 292.6L894.7 291.9" fill="none" stroke="#91cc75" stroke-width="2" stroke-linejoin="bevel"></path>
</g>
<g clip-path="url(#zr0-c2)">
<path d="M106.7 486.6L108 485.9L109.3 485.2L110.7 484.6L112 483.9L113.3 483.2L114.7 482.6L116 481.9L117.3 481.2L118.7 480.5L120 479.9L121.3 479.2L122.7 478.5L124 477.9L125.3 477.2L126.7 476.5L128 475.8L129.3 475.2L130.7 474.5L132 473.8L133.3 473.1L134.7 472.5L136 471.8L137.3 471.1L138.7 470.5L140 469.8L141.3 469.1L142.7 468.4L144 467.8L145.3 467.1L146.7 466.4L148 465.7L149.3 465.1L150.7 464.4L152 463.7L153.3 463.1L154.7 462.4L156 461.7L157.3 461L158.7 460.4L160 459.7L161.3 459L162.7 458.4L164 457.7L165.3 457L166.7 456.3L168 455.7L169.3 455L170.7 454.3L172 453.6L173.3 453L174.7 452.3L176 451.6L177.3 451L178.7 450.3L180 449.6L181.3 448.9L182.7 448.3L184 447.6L185.3 446.9L186.7 446.2L188 445.6L189.3 444.9L190.7 444.2L192 443.6L193.3 442.9L194.7 442.2L196 441.5L197.3 440.9L198.7 440.2L200 439.5L201.3 438.9L202.7 438.2L204 437.5L205.3 436.8L206.7 436.2L208 435.5L209.3 434.8L210.7 434.1L212 433.5L213.3 432.8L214.7 432.1L216 431.5L217.3 430.8L218.7 430.1L220 429.4L221.3 428.8L222.7 428.1L224 427.4L225.3 426.7L226.7 426.1L228 425.4L229.3 424.7L230.7 424.1L232 423.4L233.3 422.7L234.7 422L236 421.4L237.3 420.7L238.7 420L240 419.4L241.3 418.7L242.7 418L244 417.3L245.3 416.7L246.7 416L248 415.3L249.3 414.6L250.7 414L252 413.3L253.3 412.6L254.7 412L256 411.3L257.3 410.6L258.7 409.9L260 409.3L261.3 408.6L262.7 407.9L264 407.2L265.3 406.6L266.7 405.9L268 405.2L269.3 404.6L270.7 403.9L272 403.2L273.3 402.5L274.7 401.9L276 401.2L277.3 400.5L278.7 399.9L280 399.2L281.3 398.5L282.7 397.8L284 397.2L285.3 396.5L286.7 395.8L288 395.1L289.3 394.5L290.7 393.8L292 393.1L293.3 392.5L294.7 391.8L296 391.1L297.3 390.4L298.7 389.8L300 389.1L301.3 388.4L302.7 387.7L304 387.1L305.3 386.4L306.7 385.7L308 385.1L309.3 384.4L310.7 383.7L312 383L313.3 382.4L314.7 381.7L316 381L317.3 380.4L318.7 379.7L320 379L321.3 378.3L322.7 377.7L324 377L325.3 376.3L326.7 375.6L328 375L329.3 374.3L330.7 373.6L332 373L333.3 372.3L334.7 371.6L336 370.9L337.3 370.3L338.7 369.6L340 368.9L341.3 368.2L342.7 367.6L344 366.9L345.3 366.2L346.7 365.6L348 364.9L349.3 364.2L350.7 363.5L352 362.9L353.3 362.2L354.7 361.5L356 360.9L357.3 360.2L358.7 359.5L360 358.8L361.3 358.2L362.7 357.5L364 356.8L365.3 356.1L366.7 355.5L368 354.8L369.3 354.1L370.7 353.5L372 352.8L373.3 352.1L374.7 351.4L376 350.8L377.3 350.1L378.7 349.4L380 348.7L381.3 348.1L382.7 347.4L384 346.7L385.3 346.1L386.7 345.4L388 344.7L389.3 344L390.7 343.4L392 342.7L393.3 342L394.7 341.4L396 340.7L397.3 340L398.7 339.3L400 338.7L401.3 338L402.7 337.3L404 336.6L405.3 336L406.7 335.3L408 334.6L409.3 334L410.7 333.3L412 332.6L413.3 331.9L414.7 331.3L416 330.6L417.3 329.9L418.7 329.2L420 328.6L421.3 327.9L422.7 327.2L424 326.6L425.3 325.9L426.7 325.2L428 324.5L429.3 323.9L430.7 323.2L432 322.5L433.3 321.9L434.7 321.2L436 320.5L437.3 319.8L438.7 319.2L440 318.5L441.3 317.8L442.7 317.1L444 316.5L445.3 315.8L446.7 315.1L448 314.5L449.3 313.8L450.7 313.1L452 312.4L453.3 311.8L454.7 311.1L456 310.4L457.3 309.7L458.7 309.1L460 308.4L461.3 307.7L462.7 307.1L464 306.4L465.3 305.7L466.7 305L468 304.4L469.3 303.7L470.7 303L472 302.4L473.3 301.7L474.7 301L476 300.3L477.3 299.7L478.7 299L480 298.3L481.3 297.6L482.7 297L484 296.3L485.3 295.6L486.7 295L488 294.3L489.3 293.6L490.7 292.9L492 292.3L493.3 291.6L494.7 290.9L496 290.2L497.3 289.6L498.7 288.9L500 288.2L501.3 287.6L502.7 286.9L504 286.2L505.3 285.5L506.7 284.9L508 284.2L509.3 283.5L510.7 282.9L512 282.2L513.3 281.5L514.7 280.8L516 280.2L517.3 279.5L518.7 278.8L520 278.1L521.3 277.5L522.7 276.8L524 276.1L525.3 275.5L526.7 274.8L528 274.1L529.3 273.4L530.7 272.8L532 272.1L533.3 271.4L534.7 270.7L536 270.1L537.3 269.4L538.7 268.7L540 268.1L541.3 267.4L542.7 266.7L544 266L545.3 265.4L546.7 264.7L548 264L549.3 263.4L550.7 262.7L552 262L553.3 261.3L554.7 260.7L556 260L557.3 259.3L558.7 258.6L560 258L561.3 257.3L562.7 256.6L564 256L565.3 255.3L566.7 254.6L568 253.9L569.3 253.3L570.7 252.6L572 251.9L573.3 251.2L574.7 250.6L576 249.9L577.3 249.2L578.7 248.6L580 247.9L581.3 247.2L582.7 246.5L584 245.9L585.3 245.2L586.7 244.5L588 243.9L589.3 243.2L590.7 242.5L592 241.8L593.3 241.2L594.7 240.5L596 239.8L597.3 239.1L598.7 238.5L600 237.8L601.3 237.1L602.7 236.5L604 235.8L605.3 235.1L606.7 234.4L608 233.8L609.3 233.1L610.7 232.4L612 231.7L613.3 231.1L614.7 230.4L616 229.7L617.3 229.1L618.7 228.4L620 227.7L621.3 227L622.7 226.4L624 225.7L625.3 225L626.7 224.4L628 223.7L629.3 223L630.7 222.3L632 221.7L633.3 221L634.7 220.3L636 219.6L637.3 219L638.7 218.3L640 217.6L641.3 217L642.7 216.3L644 215.6L645.3 214.9L646.7 214.3L648 213.6L649.3 212.9L650.7 212.2L652 211.6L653.3 210.9L654.7 210.2L656 209.6L657.3 208.9L658.7 208.2L660 207.5L661.3 206.9L662.7 206.2L664 205.5L665.3 204.9L666.7 204.2L668 203.5L669.3 202.8L670.7 202.2L672 201.5L673.3 200.8L674.7 200.1L676 199.5L677.3 198.8L678.7 198.1L680 197.5L681.3 196.8L682.7 196.1L684 195.4L685.3 194.8L686.7 194.1L688 193.4L689.3 192.7L690.7 192.1L692 191.4L693.3 190.7L694.7 190.1L696 189.4L697.3 188.7L698.7 188L700 187.4L701.3 186.7L702.7 186L704 185.4L705.3 184.7L706.7 184L708 183.3L709.3 182.7L710.7 182L712 181.3L713.3 180.6L714.7 180L716 179.3L717.3 178.6L718.7 178L720 177.3L721.3 176.6L722.7 175.9L724 175.3L725.3 174.6L726.7 173.9L728 173.2L729.3 172.6L730.7 171.9L732 171.2L733.3 170.6L734.7 169.9L736 169.2L737.3 168.5L738.7 167.9L740 167.2L741.3 166.5L742.7 165.9L744 165.2L745.3 164.5L746.7 163.8L748 163.2L749.3 162.5L750.7 161.8L752 161.1L753.3 160.5L754.7 159.8L756 159.1L757.3 158.5L758.7 157.8L760 157.1L761.3 156.4L762.7 155.8L764 155.1L765.3 154.4L766.7 153.7L768 153.1L769.3 152.4L770.7 151.7L772 151.1L773.3 150.4L774.7 149.7L776 149L777.3 148.4L778.7 147.7L780 147L781.3 146.4L782.7 145.7L784 145L785.3 144.3L786.7 143.7L788 143L789.3 142.3L790.7 141.6L792 141L793.3 140.3L794.7 139.6L796 139L797.3 138.3L798.7 137.6L800 136.9L801.3 136.3L802.7 135.6L804 134.9L805.3 134.2L806.7 133.6L808 132.9L809.3 132.2L810.7 131.6L812 130.9L813.3 130.2L814.7 129.5L816 128.9L817.3 128.2L818.7 127.5L820 126.9L821.3 126.2L822.7 125.5L824 124.8L825.3 124.2L826.7 123.5L828 122.8L829.3 122.1L830.7 121.5L832 120.8L833.3 120.1L834.7 119.5L836 118.8L837.3 118.1L838.7 117.4L840 116.8L841.3 116.1L842.7 115.4L844 114.7L845.3 114.1L846.7 113.4L848 112.7L849.3 112.1L850.7 111.4L852 110.7L853.3 110L854.7 109.4L856 108.7L857.3 108L858.7 107.4L860 106.7L861.3 106L862.7 105.3L864 104.7L865.3 104L866.7 103.3L868 102.6L869.3 102L870.7 101.3L872 100.6L873.3 100L874.7 99.3L876 98.6L877.3 97.9L878.7 97.3L880 96.6L881.3 95.9L882.7 95.2L884 94.6L885.3 93.9L886.7 93.2L888 92.6L889.3 91.9L890.7 91.2L892 90.5L893.3 89.9L894.7 89.2" fill="none" stroke="#fac858" stroke-width="2" stroke-linejoin="bevel"></path>
</g>
<path d="M-0.54 -0.89A0.6 0.6 0 1 1 0.54 -0.89C0.39 -0.56 0 -0.42 0 0C0 -0.42 -0.39 -0.56 -0.54 -0.89Z" transform="matrix(25,0,0,25,500,498.8841)" fill="#91cc75"></path>
<path d="M-0.54 -0.89A0.6 0.6 0 1 1 0.54 -0.89C0.39 -0.56 0 -0.42 0 0C0 -0.42 -0.39 -0.56 -0.54 -0.89Z" transform="matrix(25,0,0,25,500,288.2305)" fill="#fac858"></path>
<text dominant-baseline="central" text-anchor="middle" style="font-size:12px;font-family:sans-serif;" transform="translate(500 472.7412)" fill="#333">-1.2</text>
<text dominant-baseline="central" text-anchor="middle" style="font-size:12px;font-family:sans-serif;" transform="translate(500 262.0877)" fill="#333">1.3</text>
<defs >
<clipPath id="zr0-c0">
<path d="M99 59l802 0l0 672l-802 0Z" fill="#000"></path>
</clipPath>
<clipPath id="zr0-c1">
<path d="M99 59l802 0l0 672l-802 0Z" fill="#000"></path>
</clipPath>
<clipPath id="zr0-c2">
<path d="M99 59l802 0l0 672l-802 0Z" fill="#000"></path>
</clipPath>
</defs>
</svg>