<svg width="1000" height="800" xmlns="http://www.w3.org/2000/svg" xmlns:xlink="http://www.w3.org/1999/xlink" version="1.1" baseProfile="full" viewBox="0 0 1000 800">
<rect width="1000" height="800" x="0" y="0" id="0" fill="none"></rect>
<path d="M100 730.5L900 730.5" fill="none" stroke="#E0E6F1"></path>
<path d="M100 634.5L900 634.5" fill="none" stroke="#E0E6F1"></path>
<path d="M100 538.5L900 538.5" fill="none" stroke="#E0E6F1"></path>
<path d="M100 443.5L900 443.5" fill="none" stroke="#E0E6F1"></path>
<path d="M100 347.5L900 347.5" fill="none" stroke="#E0E6F1"></path>
<path d="M100 251.5L900 251.5" fill="none" stroke="#E0E6F1"></path>
<path d="M100 155.5L900 155.5" fill="none" stroke="#E0E6F1"></path>
<path d="M100 60.5L900 60.5" fill="none" stroke="#E0E6F1"></path>
<path d="M100.5 60L100.5 730" fill="none" stroke="#E0E6F1"></path>
<path d="M233.5 60L233.5 730" fill="none" stroke="#E0E6F1"></path>
<path d="M366.5 60L366.5 730" fill="none" stroke="#E0E6F1"></path>
<path d="M500.5 60L500.5 730" fill="none" stroke="#E0E6F1"></path>
<path d="M633.5 60L633.5 730" fill="none" stroke="#E0E6F1"></path>
<path d="M766.5 60L766.5 730" fill="none" stroke="#E0E6F1"></path>
<path d="M900.5 60L900.5 730" fill="none" stroke="#E0E6F1"></path>
<path d="M500.5 730L500.5 60" fill="none" stroke="#6E7079" stroke-linecap="round"></path>
<text dominant-baseline="central" text-anchor="middle" style="font-size:12px;font-family:sans-serif;" xml:space="preserve" y="-6" transform="translate(500 45)" fill="#6E7079">Ig in muA</text>
<path d="M100 347.5L900 347.5" fill="none" stroke="#6E7079" stroke-linecap="round"></path>
<text dominant-baseline="central" text-anchor="start" style="font-size:12px;font-family:sans-serif;" xml:space="preserve" transform="translate(915 347.1429)" fill="#6E7079">U in V</text>
<path d="M500 730.5L495 730.5" fill="none" stroke="#6E7079"></path>
<path d="M500 634.5L495 634.5" fill="none" stroke="#6E7079"></path>
<path d="M500 538.5L495 538.5" fill="none" stroke="#6E7079"></path>
<path d="M500 443.5L495 443.5" fill="none" stroke="#6E7079"></path>
<path d="M500 347.5L495 347.5" fill="none" stroke="#6E7079"></path>
<path d="M500 251.5L495 251.5" fill="none" stroke="#6E7079"></path>
<path d="M500 155.5L495 155.5" fill="none" stroke="#6E7079"></path>
<path d="M500 60.5L495 60.5" fill="none" stroke="#6E7079"></path>
<path d="M100.5 347.1L100.5 352.1" fill="none" stroke="#6E7079"></path>
<path d="M233.5 347.1L233.5 352.1" fill="none" stroke="#6E7079"></path>
<path d="M366.5 347.1L366.5 352.1" fill="none" stroke="#6E7079"></path>
<path d="M500.5 347.1L500.5 352.1" fill="none" stroke="#6E7079"></path>
<path d="M633.5 347.1L633.5 352.1" fill="none" stroke="#6E7079"></path>
<path d="M766.5 347.1L766.5 352.1" fill="none" stroke="#6E7079"></path>
<path d="M900.5 347.1L900.5 352.1" fill="none" stroke="#6E7079"></path>
<text dominant-baseline="central" text-anchor="end" style="font-size:12px;font-family:sans-serif;" transform="translate(92 730)" fill="#6E7079">-20</text>
<text dominant-baseline="central" text-anchor="end" style="font-size:12px;font-family:sans-serif;" transform="translate(92 634.2857)" fill="#6E7079">-15</text>
<text dominant-baseline="central" text-anchor="end" style="font-size:12px;font-family:sans-serif;" transform="translate(92 538.5714)" fill="#6E7079">-10</text>
<text dominant-baseline="central" text-anchor="end" style="font-size:12px;font-family:sans-serif;" transform="translate(92 442.8571)" fill="#6E7079">-5</text>
<text dominant-baseline="central" text-anchor="end" style="font-size:12px;font-family:sans-serif;" transform="translate(92 347.1429)" fill="#6E7079">0</text>
<text dominant-baseline="central" text-anchor="end" style="font-size:12px;font-family:sans-serif;" transform="translate(92 251.4286)" fill="#6E7079">5</text>
<text dominant-baseline="central" text-anchor="end" style="font-size:12px;font-family:sans-serif;" transform="translate(92 155.7143)" fill="#6E7079">10</text>
<text dominant-baseline="central" text-anchor="end" style="font-size:12px;font-family:sans-serif;" transform="translate(92 60)" fill="#6E7079">15</text>
<text dominant-baseline="central" text-anchor="middle" style="font-size:12px;font-family:sans-serif;" y="6" transform="translate(100 738)" fill="#6E7079">-30</text>
<text dominant-baseline="central" text-anchor="middle" style="font-size:12px;font-family:sans-serif;" y="6" transform="translate(233.3333 738)" fill="#6E7079">-20</text>
<text dominant-baseline="central" text-anchor="middle" style="font-size:12px;font-family:sans-serif;" y="6" transform="translate(366.6667 738)" fill="#6E7079">-10</text>
<text dominant-baseline="central" text-anchor="middle" style="font-size:12px;font-family:sans-serif;" y="6" transform="translate(500 738)" fill="#6E7079">0</text>
<text dominant-baseline="central" text-anchor="middle" style="font-size:12px;font-family:sans-serif;" y="6" transform="translate(633.3333 738)" fill="#6E7079">10</text>
<text dominant-baseline="central" text-anchor="middle" style="font-size:12px;font-family:sans-serif;" y="6" transform="translate(766.6667 738)" fill="#6E7079">20</text>
<text dominant-baseline="central" text-anchor="middle" style="font-size:12px;font-family:sans-serif;" y="6" transform="translate(900 738)" fill="#6E7079">30</text>
<g clip-path="url(#zr1-c0)">
<path d="M106.7 654.8L108 654.2L109.3 653.5L110.7 652.9L112 652.2L113.3 651.6L114.7 650.8L116 650.2L117.3 649.5L118.7 648.8L120 648.2L121.3 647.6L122.7 646.9L124 646.3L125.3 645.8L126.7 645.2L128 644.7L129.3 644.3L130.7 643.8L132 643.1L133.3 642.4L134.7 641.7L136 641L137.3 640.3L138.7 639.6L140 639.1L141.3 638.3L142.7 637.6L144 637L145.3 636.4L146.7 635.8L148 635.1L149.3 634.4L150.7 633.6L152 633.1L153.3 632.5L154.7 631.8L156 631.1L157.3 630.4L158.7 629.7L160 629.1L161.3 628.6L162.7 628L164 627.3L165.3 626.7L166.7 626L168 625.1L169.3 624.5L170.7 623.8L172 623.2L173.3 622.5L174.7 621.7L176 621.2L177.3 620.6L178.7 619.9L180 619.3L181.3 618.7L182.7 618L184 617.3L185.3 616.6L186.7 616L188 615.2L189.3 614.4L190.7 613.7L192 613.1L193.3 612.3L194.7 611.7L196 611.1L197.3 610.4L198.7 609.7L200 609L201.3 608.4L202.7 607.7L204 607L205.3 606.2L206.7 605.6L208 604.8L209.3 604L210.7 603.4L212 602.8L213.3 602L214.7 601.3L216 600.7L217.3 600.1L218.7 599.5L220 598.7L221.3 598.1L222.7 597.4L224 596.8L225.3 596.2L226.7 595.5L228 594.7L229.3 593.8L230.7 593.3L232 592.6L233.3 592.1L234.7 591.3L236 590.6L237.3 589.9L238.7 589.2L240 588.3L241.3 587.6L242.7 586.7L244 586L245.3 585.3L246.7 584.5L248 583.9L249.3 583L250.7 582.3L252 581.5L253.3 580.7L254.7 580L256 579.5L257.3 578.8L258.7 578.1L260 577.2L261.3 576.3L262.7 575.6L264 574.8L265.3 574L266.7 573.4L268 572.7L269.3 572.2L270.7 571.5L272 570.7L273.3 569.8L274.7 569.1L276 568.2L277.3 567.6L278.7 566.8L280 566.1L281.3 565.3L282.7 564.6L284 563.8L285.3 562.9L286.7 562.1L288 561.4L289.3 560.6L290.7 559.8L292 559.1L293.3 558.2L294.7 557.3L296 556.6L297.3 555.6L298.7 554.8L300 554L301.3 553.2L302.7 552.4L304 551.7L305.3 550.9L306.7 550.2L308 549.3L309.3 548.4L310.7 547.5L312 546.7L313.3 546L314.7 545.1L316 544.3L317.3 543.5L318.7 542.7L320 541.9L321.3 541.1L322.7 540.3L324 539.3L325.3 538.4L326.7 537.5L328 536.7L329.3 535.8L330.7 534.9L332 534.2L333.3 533.2L334.7 532.4L336 531.5L337.3 530.6L338.7 529.7L340 528.7L341.3 527.7L342.7 526.8L344 525.9L345.3 525L346.7 524.1L348 523L349.3 522.1L350.7 521.3L352 520.4L353.3 519.5L354.7 518.6L356 517.6L357.3 516.7L358.7 515.6L360 514.6L361.3 513.6L362.7 512.5L364 511.5L365.3 510.5L366.7 509.6L368 508.5L369.3 507.5L370.7 506.5L372 505.5L373.3 504.4L374.7 503.4L376 502.4L377.3 501.3L378.7 500.2L380 499.2L381.3 498.1L382.7 497.1L384 496L385.3 494.8L386.7 493.7L388 492.6L389.3 491.4L390.7 490.2L392 489.1L393.3 488L394.7 486.8L396 485.7L397.3 484.5L398.7 483.2L400 482L401.3 480.7L402.7 479.5L404 478.2L405.3 477L406.7 475.6L408 474.3L409.3 472.8L410.7 471.4L412 470.1L413.3 468.8L414.7 467.5L416 466.1L417.3 464.6L418.7 463.2L420 461.8L421.3 460.2L422.7 458.8L424 457.3L425.3 455.7L426.7 454.3L428 452.7L429.3 451.2L430.7 449.6L432 448L433.3 446.3L434.7 444.7L436 443.1L437.3 441.5L438.7 439.8L440 438.1L441.3 436.4L442.7 434.6L444 432.8L445.3 431L446.7 429.2L448 427.3L449.3 425.5L450.7 423.6L452 421.7L453.3 419.7L454.7 417.7L456 415.8L457.3 413.7L458.7 411.7L460 409.7L461.3 407.6L462.7 405.5L464 403.4L465.3 401.2L466.7 399.1L468 397L469.3 394.8L470.7 392.7L472 390.5L473.3 388.2L474.7 385.9L476 383.6L477.3 381.5L478.7 379.2L480 376.9L481.3 374.7L482.7 372.4L484 370.1L485.3 367.8L486.7 365.4L488 363.1L489.3 360.8L490.7 358.4L492 356L493.3 353.7L494.7 351.3L496 349L497.3 346.6L498.7 344.2L500 341.8L501.3 339.6L502.7 337.2L504 334.9L505.3 332.6L506.7 330.2L508 327.9L509.3 325.6L510.7 323.3L512 321L513.3 318.7L514.7 316.5L516 314.3L517.3 312.1L518.7 309.9L520 307.7L521.3 305.5L522.7 303.3L524 301.1L525.3 298.9L526.7 296.9L528 294.8L529.3 292.7L530.7 290.7L532 288.6L533.3 286.6L534.7 284.7L536 282.7L537.3 280.7L538.7 278.8L540 276.9L541.3 274.9L542.7 273L544 271.1L545.3 269.3L546.7 267.5L548 265.7L549.3 264L550.7 262.3L552 260.6L553.3 259L554.7 257.3L556 255.7L557.3 254.1L558.7 252.5L560 251L561.3 249.4L562.7 247.9L564 246.3L565.3 244.8L566.7 243.4L568 242.1L569.3 240.7L570.7 239.3L572 238L573.3 236.7L574.7 235.3L576 234.1L577.3 232.8L578.7 231.6L580 230.4L581.3 229.1L582.7 227.9L584 226.7L585.3 225.5L586.7 224.3L588 223.1L589.3 222L590.7 221L592 219.9L593.3 218.9L594.7 217.8L596 216.7L597.3 215.6L598.7 214.6L600 213.7L601.3 212.7L602.7 211.8L604 210.8L605.3 209.9L606.7 209.1L608 208.1L609.3 207.1L610.7 206.3L612 205.4L613.3 204.4L614.7 203.6L616 202.8L617.3 201.9L618.7 201.1L620 200.3L621.3 199.4L622.7 198.6L624 197.8L625.3 197L626.7 196.2L628 195.3L629.3 194.4L630.7 193.5L632 192.7L633.3 191.9L634.7 190.9L636 190.2L637.3 189.5L638.7 188.7L640 188L641.3 187.3L642.7 186.5L644 185.7L645.3 185L646.7 184.3L648 183.6L649.3 182.7L650.7 182L652 181.3L653.3 180.5L654.7 179.9L656 179.2L657.3 178.5L658.7 177.7L660 177.1L661.3 176.5L662.7 175.9L664 175.3L665.3 174.6L666.7 173.9L668 173.3L669.3 172.7L670.7 172L672 171.5L673.3 170.7L674.7 169.9L676 169.2L677.3 168.7L678.7 168.2L680 167.7L681.3 167.2L682.7 166.5L684 166L685.3 165.2L686.7 164.5L688 163.8L689.3 163.1L690.7 162.4L692 161.7L693.3 161L694.7 160.3L696 159.8L697.3 159.1L698.7 158.4L700 157.7L701.3 157.1L702.7 156.5L704 155.9L705.3 155.1L706.7 154.3L708 153.6L709.3 152.8L710.7 152.1L712 151.5L713.3 151L714.7 150.6L716 150L717.3 149.4L718.7 148.8L720 148.3L721.3 147.7L722.7 147L724 146.4L725.3 145.9L726.7 145.3L728 144.5L729.3 143.9L730.7 143.4L732 142.8L733.3 142.4L734.7 141.6L736 141.1L737.3 140.5L738.7 139.9L740 139.1L741.3 138.5L742.7 137.8L744 137.2L745.3 136.6L746.7 136L748 135.3L749.3 134.7L750.7 134.2L752 133.4L753.3 132.8L754.7 132.4L756 131.9L757.3 131.3L758.7 130.6L760 129.9L761.3 129.2L762.7 128.9L764 128.2L765.3 127.5L766.7 127L768 126.5L769.3 125.9L770.7 125.4L772 124.7L773.3 123.9L774.7 123.5L776 122.8L777.3 122.2L778.7 121.4L780 120.9L781.3 120.3L782.7 119.8L784 119.2L785.3 118.7L786.7 118.2L788 117.8L789.3 117L790.7 116.4L792 115.9L793.3 115.4L794.7 114.8L796 114.2L797.3 113.8L798.7 113.3L800 112.9L801.3 112.4L802.7 111.9L804 111.4L805.3 111L806.7 110.6L808 110L809.3 109.5L810.7 108.8L812 108.2L813.3 107.5L814.7 106.8L816 106.2L817.3 105.7L818.7 105.2L820 104.4L821.3 103.9L822.7 103.5L824 102.9L825.3 102.4L826.7 101.7L828 101L829.3 100.6L830.7 99.9L832 99.4L833.3 98.8L834.7 98.2L836 97.7L837.3 97.1L838.7 96.5L840 96.2L841.3 95.7L842.7 95.1L844 94.5L845.3 93.9L846.7 93.4L848 92.9L849.3 92.3L850.7 91.7L852 91.3L853.3 90.6L854.7 90.1L856 89.6L857.3 88.9L858.7 88.4L860 87.8L861.3 87.3L862.7 86.7L864 86L865.3 85.3L866.7 84.6L868 83.8L869.3 83.2L870.7 82.7L872 82.2L873.3 81.7L874.7 81.3L876 80.7L877.3 80.2L878.7 79.4L880 78.6L881.3 77.9L882.7 77.2L884 76.5L885.3 75.9L886.7 75.4L888 74.8L889.3 74.2L890.7 73.5L892 72.9L893.3 72.3L894.7 71.6" fill="none" stroke="#5470c6" stroke-width="2" stroke-linejoin="bevel"></path>
</g>
<g clip-path="url(#zr1-c1)">
<path d="M106.7 655.4L108 654.7L109.3 654.1L110.7 653.4L112 652.7L113.3 652.1L114.7 651.4L116 650.8L117.3 650.1L118.7 649.4L120 648.8L121.3 648.1L122.7 647.4L124 646.8L125.3 646.1L126.7 645.4L128 644.8L129.3 644.1L130.7 643.5L132 642.8L133.3 642.1L134.7 641.5L136 640.8L137.3 640.1L138.7 639.5L140 638.8L141.3 638.1L142.7 637.5L144 636.8L145.3 636.1L146.7 635.5L148 634.8L149.3 634.2L150.7 633.5L152 632.8L153.3 632.2L154.7 631.5L156 630.8L157.3 630.2L158.7 629.5L160 628.8L161.3 628.2L162.7 627.5L164 626.9L165.3 626.2L166.7 625.5L168 624.9L169.3 624.2L170.7 623.5L172 622.9L173.3 622.2L174.7 621.5L176 620.9L177.3 620.2L178.7 619.5L180 618.9L181.3 618.2L182.7 617.6L184 616.9L185.3 616.2L186.7 615.6L188 614.9L189.3 614.2L190.7 613.6L192 612.9L193.3 612.2L194.7 611.6L196 610.9L197.3 610.3L198.7 609.6L200 608.9L201.3 608.3L202.7 607.6L204 606.9L205.3 606.3L206.7 605.6L208 604.9L209.3 604.3L210.7 603.6L212 603L213.3 602.3L214.7 601.6L216 601L217.3 600.3L218.7 599.6L220 599L221.3 598.3L222.7 597.6L224 597L225.3 596.3L226.7 595.6L228 595L229.3 594.3L230.7 593.7L232 593L233.3 592.3L234.7 591.7L236 591L237.3 590.3L238.7 589.7L240 589L241.3 588.3L242.7 587.7L244 587L245.3 586.4L246.7 585.7L248 585L249.3 584.4L250.7 583.7L252 583L253.3 582.4L254.7 581.7L256 581L257.3 580.4L258.7 579.7L260 579L261.3 578.4L262.7 577.7L264 577.1L265.3 576.4L266.7 575.7L268 575.1L269.3 574.4L270.7 573.7L272 573.1L273.3 572.4L274.7 571.7L276 571.1L277.3 570.4L278.7 569.8L280 569.1L281.3 568.4L282.7 567.8L284 567.1L285.3 566.4L286.7 565.8L288 565.1L289.3 564.4L290.7 563.8L292 563.1L293.3 562.5L294.7 561.8L296 561.1L297.3 560.5L298.7 559.8L300 559.1L301.3 558.5L302.7 557.8L304 557.1L305.3 556.5L306.7 555.8L308 555.1L309.3 554.5L310.7 553.8L312 553.2L313.3 552.5L314.7 551.8L316 551.2L317.3 550.5L318.7 549.8L320 549.2L321.3 548.5L322.7 547.8L324 547.2L325.3 546.5L326.7 545.9L328 545.2L329.3 544.5L330.7 543.9L332 543.2L333.3 542.5L334.7 541.9L336 541.2L337.3 540.5L338.7 539.9L340 539.2L341.3 538.5L342.7 537.9L344 537.2L345.3 536.6L346.7 535.9L348 535.2L349.3 534.6L350.7 533.9L352 533.2L353.3 532.6L354.7 531.9L356 531.2L357.3 530.6L358.7 529.9L360 529.3L361.3 528.6L362.7 527.9L364 527.3L365.3 526.6L366.7 525.9L368 525.3L369.3 524.6L370.7 523.9L372 523.3L373.3 522.6L374.7 522L376 521.3L377.3 520.6L378.7 520L380 519.3L381.3 518.6L382.7 518L384 517.3L385.3 516.6L386.7 516L388 515.3L389.3 514.6L390.7 514L392 513.3L393.3 512.7L394.7 512L396 511.3L397.3 510.7L398.7 510L400 509.3L401.3 508.7L402.7 508L404 507.3L405.3 506.7L406.7 506L408 505.4L409.3 504.7L410.7 504L412 503.4L413.3 502.7L414.7 502L416 501.4L417.3 500.7L418.7 500L420 499.4L421.3 498.7L422.7 498L424 497.4L425.3 496.7L426.7 496.1L428 495.4L429.3 494.7L430.7 494.1L432 493.4L433.3 492.7L434.7 492.1L436 491.4L437.3 490.7L438.7 490.1L440 489.4L441.3 488.8L442.7 488.1L444 487.4L445.3 486.8L446.7 486.1L448 485.4L449.3 484.8L450.7 484.1L452 483.4L453.3 482.8L454.7 482.1L456 481.5L457.3 480.8L458.7 480.1L460 479.5L461.3 478.8L462.7 478.1L464 477.5L465.3 476.8L466.7 476.1L468 475.5L469.3 474.8L470.7 474.1L472 473.5L473.3 472.8L474.7 472.2L476 471.5L477.3 470.8L478.7 470.2L480 469.5L481.3 468.8L482.7 468.2L484 467.5L485.3 466.8L486.7 466.2L488 465.5L489.3 464.9L490.7 464.2L492 463.5L493.3 462.9L494.7 462.2L496 461.5L497.3 460.9L498.7 460.2L500 459.5L501.3 458.9L502.7 458.2L504 457.5L505.3 456.9L506.7 456.2L508 455.6L509.3 454.9L510.7 454.2L512 453.6L513.3 452.9L514.7 452.2L516 451.6L517.3 450.9L518.7 450.2L520 449.6L521.3 448.9L522.7 448.3L524 447.6L525.3 446.9L526.7 446.3L528 445.6L529.3 444.9L530.7 444.3L532 443.6L533.3 442.9L534.7 442.3L536 441.6L537.3 440.9L538.7 440.3L540 439.6L541.3 439L542.7 438.3L544 437.6L545.3 437L546.7 436.3L548 435.6L549.3 435L550.7 434.3L552 433.6L553.3 433L554.7 432.3L556 431.7L557.3 431L558.7 430.3L560 429.7L561.3 429L562.7 428.3L564 427.7L565.3 427L566.7 426.3L568 425.7L569.3 425L570.7 424.4L572 423.7L573.3 423L574.7 422.4L576 421.7L577.3 421L578.7 420.4L580 419.7L581.3 419L582.7 418.4L584 417.7L585.3 417L586.7 416.4L588 415.7L589.3 415.1L590.7 414.4L592 413.7L593.3 413.1L594.7 412.4L596 411.7L597.3 411.1L598.7 410.4L600 409.7L601.3 409.1L602.7 408.4L604 407.8L605.3 407.1L606.7 406.4L608 405.8L609.3 405.1L610.7 404.4L612 403.8L613.3 403.1L614.7 402.4L616 401.8L617.3 401.1L618.7 400.4L620 399.8L621.3 399.1L622.7 398.5L624 397.8L625.3 397.1L626.7 396.5L628 395.8L629.3 395.1L630.7 394.5L632 393.8L633.3 393.1L634.7 392.5L636 391.8L637.3 391.2L638.7 390.5L640 389.8L641.3 389.2L642.7 388.5L644 387.8L645.3 387.2L646.7 386.5L648 385.8L649.3 385.2L650.7 384.5L652 383.9L653.3 383.2L654.7 382.5L656 381.9L657.3 381.2L658.7 380.5L660 379.9L661.3 379.2L662.7 378.5L664 377.9L665.3 377.2L666.7 376.5L668 375.9L669.3 375.2L670.7 374.6L672 373.9L673.3 373.2L674.7 372.6L676 371.9L677.3 371.2L678.7 370.6L680 369.9L681.3 369.2L682.7 368.6L684 367.9L685.3 367.3L686.7 366.6L688 365.9L689.3 365.3L690.7 364.6L692 363.9L693.3 363.3L694.7 362.6L696 361.9L697.3 361.3L698.7 360.6L700 359.9L701.3 359.3L702.7 358.6L704 358L705.3 357.3L706.7 356.6L708 356L709.3 355.3L710.7 354.6L712 354L713.3 353.3L714.7 352.6L716 352L717.3 351.3L718.7 350.7L720 350L721.3 349.3L722.7 348.7L724 348L725.3 347.3L726.7 346.7L728 346L729.3 345.3L730.7 344.7L732 344L733.3 343.4L734.7 342.7L736 342L737.3 341.4L738.7 340.7L740 340L741.3 339.4L742.7 338.7L744 338L745.3 337.4L746.7 336.7L748 336L749.3 335.4L750.7 334.7L752 334.1L753.3 333.4L754.7 332.7L756 332.1L757.3 331.4L758.7 330.7L760 330.1L761.3 329.4L762.7 328.7L764 328.1L765.3 327.4L766.7 326.8L768 326.1L769.3 325.4L770.7 324.8L772 324.1L773.3 323.4L774.7 322.8L776 322.1L777.3 321.4L778.7 320.8L780 320.1L781.3 319.4L782.7 318.8L784 318.1L785.3 317.5L786.7 316.8L788 316.1L789.3 315.5L790.7 314.8L792 314.1L793.3 313.5L794.7 312.8L796 312.1L797.3 311.5L798.7 310.8L800 310.2L801.3 309.5L802.7 308.8L804 308.2L805.3 307.5L806.7 306.8L808 306.2L809.3 305.5L810.7 304.8L812 304.2L813.3 303.5L814.7 302.9L816 302.2L817.3 301.5L818.7 300.9L820 300.2L821.3 299.5L822.7 298.9L824 298.2L825.3 297.5L826.7 296.9L828 296.2L829.3 295.5L830.7 294.9L832 294.2L833.3 293.6L834.7 292.9L836 292.2L837.3 291.6L838.7 290.9L840 290.2L841.3 289.6L842.7 288.9L844 288.2L845.3 287.6L846.7 286.9L848 286.3L849.3 285.6L850.7 284.9L852 284.3L853.3 283.6L854.7 282.9L856 282.3L857.3 281.6L858.7 280.9L860 280.3L861.3 279.6L862.7 278.9L864 278.3L865.3 277.6L866.7 277L868 276.3L869.3 275.6L870.7 275L872 274.3L873.3 273.6L874.7 273L876 272.3L877.3 271.6L878.7 271L880 270.3L881.3 269.7L882.7 269L884 268.3L885.3 267.7L886.7 267L888 266.3L889.3 265.7L890.7 265L892 264.3L893.3 263.7L894.7 263" fill="none" stroke="#91cc75" stroke-width="2" stroke-linejoin="bevel"></path>
</g>
<g clip-path="url(#zr1-c2)">
<path d="M106.7 408L108 407.5L109.3 406.9L110.7 406.3L112 405.8L113.3 405.2L114.7 404.6L116 404.1L117.3 403.5L118.7 402.9L120 402.4L121.3 401.8L122.7 401.2L124 400.7L125.3 400.1L126.7 399.5L128 399L129.3 398.4L130.7 397.8L132 397.3L133.3 396.7L134.7 396.1L136 395.6L137.3 395L138.7 394.4L140 393.9L141.3 393.3L142.7 392.7L144 392.2L145.3 391.6L146.7 391L148 390.5L149.3 389.9L150.7 389.3L152 388.8L153.3 388.2L154.7 387.6L156 387L157.3 386.5L158.7 385.9L160 385.3L161.3 384.8L162.7 384.2L164 383.6L165.3 383.1L166.7 382.5L168 381.9L169.3 381.4L170.7 380.8L172 380.2L173.3 379.7L174.7 379.1L176 378.5L177.3 378L178.7 377.4L180 376.8L181.3 376.3L182.7 375.7L184 375.1L185.3 374.6L186.7 374L188 373.4L189.3 372.9L190.7 372.3L192 371.7L193.3 371.2L194.7 370.6L196 370L197.3 369.5L198.7 368.9L200 368.3L201.3 367.7L202.7 367.2L204 366.6L205.3 366L206.7 365.5L208 364.9L209.3 364.3L210.7 363.8L212 363.2L213.3 362.6L214.7 362.1L216 361.5L217.3 360.9L218.7 360.4L220 359.8L221.3 359.2L222.7 358.7L224 358.1L225.3 357.5L226.7 357L228 356.4L229.3 355.8L230.7 355.3L232 354.7L233.3 354.1L234.7 353.6L236 353L237.3 352.4L238.7 351.9L240 351.3L241.3 350.7L242.7 350.2L244 349.6L245.3 349L246.7 348.4L248 347.9L249.3 347.3L250.7 346.7L252 346.2L253.3 345.6L254.7 345L256 344.5L257.3 343.9L258.7 343.3L260 342.8L261.3 342.2L262.7 341.6L264 341.1L265.3 340.5L266.7 339.9L268 339.4L269.3 338.8L270.7 338.2L272 337.7L273.3 337.1L274.7 336.5L276 336L277.3 335.4L278.7 334.8L280 334.3L281.3 333.7L282.7 333.1L284 332.6L285.3 332L286.7 331.4L288 330.9L289.3 330.3L290.7 329.7L292 329.1L293.3 328.6L294.7 328L296 327.4L297.3 326.9L298.7 326.3L300 325.7L301.3 325.2L302.7 324.6L304 324L305.3 323.5L306.7 322.9L308 322.3L309.3 321.8L310.7 321.2L312 320.6L313.3 320.1L314.7 319.5L316 318.9L317.3 318.4L318.7 317.8L320 317.2L321.3 316.7L322.7 316.1L324 315.5L325.3 315L326.7 314.4L328 313.8L329.3 313.3L330.7 312.7L332 312.1L333.3 311.6L334.7 311L336 310.4L337.3 309.9L338.7 309.3L340 308.7L341.3 308.1L342.7 307.6L344 307L345.3 306.4L346.7 305.9L348 305.3L349.3 304.7L350.7 304.2L352 303.6L353.3 303L354.7 302.5L356 301.9L357.3 301.3L358.7 300.8L360 300.2L361.3 299.6L362.7 299.1L364 298.5L365.3 297.9L366.7 297.4L368 296.8L369.3 296.2L370.7 295.7L372 295.1L373.3 294.5L374.7 294L376 293.4L377.3 292.8L378.7 292.3L380 291.7L381.3 291.1L382.7 290.6L384 290L385.3 289.4L386.7 288.8L388 288.3L389.3 287.7L390.7 287.1L392 286.6L393.3 286L394.7 285.4L396 284.9L397.3 284.3L398.7 283.7L400 283.2L401.3 282.6L402.7 282L404 281.5L405.3 280.9L406.7 280.3L408 279.8L409.3 279.2L410.7 278.6L412 278.1L413.3 277.5L414.7 276.9L416 276.4L417.3 275.8L418.7 275.2L420 274.7L421.3 274.1L422.7 273.5L424 273L425.3 272.4L426.7 271.8L428 271.3L429.3 270.7L430.7 270.1L432 269.5L433.3 269L434.7 268.4L436 267.8L437.3 267.3L438.7 266.7L440 266.1L441.3 265.6L442.7 265L444 264.4L445.3 263.9L446.7 263.3L448 262.7L449.3 262.2L450.7 261.6L452 261L453.3 260.5L454.7 259.9L456 259.3L457.3 258.8L458.7 258.2L460 257.6L461.3 257.1L462.7 256.5L464 255.9L465.3 255.4L466.7 254.8L468 254.2L469.3 253.7L470.7 253.1L472 252.5L473.3 252L474.7 251.4L476 250.8L477.3 250.3L478.7 249.7L480 249.1L481.3 248.5L482.7 248L484 247.4L485.3 246.8L486.7 246.3L488 245.7L489.3 245.1L490.7 244.6L492 244L493.3 243.4L494.7 242.9L496 242.3L497.3 241.7L498.7 241.2L500 240.6L501.3 240L502.7 239.5L504 238.9L505.3 238.3L506.7 237.8L508 237.2L509.3 236.6L510.7 236.1L512 235.5L513.3 234.9L514.7 234.4L516 233.8L517.3 233.2L518.7 232.7L520 232.1L521.3 231.5L522.7 231L524 230.4L525.3 229.8L526.7 229.2L528 228.7L529.3 228.1L530.7 227.5L532 227L533.3 226.4L534.7 225.8L536 225.3L537.3 224.7L538.7 224.1L540 223.6L541.3 223L542.7 222.4L544 221.9L545.3 221.3L546.7 220.7L548 220.2L549.3 219.6L550.7 219L552 218.5L553.3 217.9L554.7 217.3L556 216.8L557.3 216.2L558.7 215.6L560 215.1L561.3 214.5L562.7 213.9L564 213.4L565.3 212.8L566.7 212.2L568 211.7L569.3 211.1L570.7 210.5L572 209.9L573.3 209.4L574.7 208.8L576 208.2L577.3 207.7L578.7 207.1L580 206.5L581.3 206L582.7 205.4L584 204.8L585.3 204.3L586.7 203.7L588 203.1L589.3 202.6L590.7 202L592 201.4L593.3 200.9L594.7 200.3L596 199.7L597.3 199.2L598.7 198.6L600 198L601.3 197.5L602.7 196.9L604 196.3L605.3 195.8L606.7 195.2L608 194.6L609.3 194.1L610.7 193.5L612 192.9L613.3 192.4L614.7 191.8L616 191.2L617.3 190.6L618.7 190.1L620 189.5L621.3 188.9L622.7 188.4L624 187.8L625.3 187.2L626.7 186.7L628 186.1L629.3 185.5L630.7 185L632 184.4L633.3 183.8L634.7 183.3L636 182.7L637.3 182.1L638.7 181.6L640 181L641.3 180.4L642.7 179.9L644 179.3L645.3 178.7L646.7 178.2L648 177.6L649.3 177L650.7 176.5L652 175.9L653.3 175.3L654.7 174.8L656 174.2L657.3 173.6L658.7 173.1L660 172.5L661.3 171.9L662.7 171.4L664 170.8L665.3 170.2L666.7 169.6L668 169.1L669.3 168.5L670.7 167.9L672 167.4L673.3 166.8L674.7 166.2L676 165.7L677.3 165.1L678.7 164.5L680 164L681.3 163.4L682.7 162.8L684 162.3L685.3 161.7L686.7 161.1L688 160.6L689.3 160L690.7 159.4L692 158.9L693.3 158.3L694.7 157.7L696 157.2L697.3 156.6L698.7 156L700 155.5L701.3 154.9L702.7 154.3L704 153.8L705.3 153.2L706.7 152.6L708 152.1L709.3 151.5L710.7 150.9L712 150.3L713.3 149.8L714.7 149.2L716 148.6L717.3 148.1L718.7 147.5L720 146.9L721.3 146.4L722.7 145.8L724 145.2L725.3 144.7L726.7 144.1L728 143.5L729.3 143L730.7 142.4L732 141.8L733.3 141.3L734.7 140.7L736 140.1L737.3 139.6L738.7 139L740 138.4L741.3 137.9L742.7 137.3L744 136.7L745.3 136.2L746.7 135.6L748 135L749.3 134.5L750.7 133.9L752 133.3L753.3 132.8L754.7 132.2L756 131.6L757.3 131L758.7 130.5L760 129.9L761.3 129.3L762.7 128.8L764 128.2L765.3 127.6L766.7 127.1L768 126.5L769.3 125.9L770.7 125.4L772 124.8L773.3 124.2L774.7 123.7L776 123.1L777.3 122.5L778.7 122L780 121.4L781.3 120.8L782.7 120.3L784 119.7L785.3 119.1L786.7 118.6L788 118L789.3 117.4L790.7 116.9L792 116.3L793.3 115.7L794.7 115.2L796 114.6L797.3 114L798.7 113.5L800 112.9L801.3 112.3L802.7 111.8L804 111.2L805.3 110.6L806.7 110L808 109.5L809.3 108.9L810.7 108.3L812 107.8L813.3 107.2L814.7 106.6L816 106.1L817.3 105.5L818.7 104.9L820 104.4L821.3 103.8L822.7 103.2L824 102.7L825.3 102.1L826.7 101.5L828 101L829.3 100.4L830.7 99.8L832 99.3L833.3 98.7L834.7 98.1L836 97.6L837.3 97L838.7 96.4L840 95.9L841.3 95.3L842.7 94.7L844 94.2L845.3 93.6L846.7 93L848 92.5L849.3 91.9L850.7 91.3L852 90.7L853.3 90.2L854.7 89.6L856 89L857.3 88.5L858.7 87.9L860 87.3L861.3 86.8L862.7 86.2L864 85.6L865.3 85.1L866.7 84.5L868 83.9L869.3 83.4L870.7 82.8L872 82.2L873.3 81.7L874.7 81.1L876 80.5L877.3 80L878.7 79.4L880 78.8L881.3 78.3L882.7 77.7L884 77.1L885.3 76.6L886.7 76L888 75.4L889.3 74.9L890.7 74.3L892 73.7L893.3 73.2L894.7 72.6" fill="none" stroke="#fac858" stroke-width="2" stroke-linejoin="bevel"></path>
</g>
<path d="M-0.54 -0.89A0.6 0.6 0 1 1 0.54 -0.89C0.39 -0.56 0 -0.42 0 0C0 -0.42 -0.39 -0.56 -0.54 -0.89Z" transform="matrix(25,0,0,25,500,459.5401)" fill="#91cc75"></path>
<path d="M-0.54 -0.89A0.6 0.6 0 1 1 0.54 -0.89C0.39 -0.56 0 -0.42 0 0C0 -0.42 -0.39 -0.56 -0.54 -0.89Z" transform="matrix(25,0,0,25,500,240.6007)" fill="#fac858"></path>
<text dominant-baseline="central" text-anchor="middle" style="font-size:12px;font-family:sans-serif;" transform="translate(500 433.3973)" fill="#333">-5.9</text>
<text dominant-baseline="central" text-anchor="middle" style="font-size:12px;font-family:sans-serif;" transform="translate(500 214.4578)" fill="#333">5.6</text>
<defs >
<clipPath id="zr1-c0">
<path d="M99 59l802 0l0 672l-802 0Z" fill="#000"></path>
</clipPath>
<clipPath id="zr1-c1">
<path d="M99 59l802 0l0 672l-802 0Z" fill="#000"></path>
</clipPath>
<clipPath id="zr1-c2">
<path d="M99 59l802 0l0 672l-802 0Z" fill="#000"></path>
</clipPath>
</defs>
</svg>