<svg width="1000" height="800" xmlns="http://www.w3.org/2000/svg" xmlns:xlink="http://www.w3.org/1999/xlink" version="1.1" baseProfile="full" viewBox="0 0 1000 800">
<rect width="1000" height="800" x="0" y="0" id="0" fill="none"></rect>
<path d="M100 730.5L900 730.5" fill="none" stroke="#E0E6F1"></path>
<path d="M100 618.5L900 618.5" fill="none" stroke="#E0E6F1"></path>
<path d="M100 506.5L900 506.5" fill="none" stroke="#E0E6F1"></path>
<path d="M100 395.5L900 395.5" fill="none" stroke="#E0E6F1"></path>
<path d="M100 283.5L900 283.5" fill="none" stroke="#E0E6F1"></path>
<path d="M100 171.5L900 171.5" fill="none" stroke="#E0E6F1"></path>
<path d="M100 60.5L900 60.5" fill="none" stroke="#E0E6F1"></path>
<path d="M100.5 60L100.5 730" fill="none" stroke="#E0E6F1"></path>
<path d="M233.5 60L233.5 730" fill="none" stroke="#E0E6F1"></path>
<path d="M366.5 60L366.5 730" fill="none" stroke="#E0E6F1"></path>
<path d="M500.5 60L500.5 730" fill="none" stroke="#E0E6F1"></path>
<path d="M633.5 60L633.5 730" fill="none" stroke="#E0E6F1"></path>
<path d="M766.5 60L766.5 730" fill="none" stroke="#E0E6F1"></path>
<path d="M900.5 60L900.5 730" fill="none" stroke="#E0E6F1"></path>
<path d="M500.5 730L500.5 60" fill="none" stroke="#6E7079" stroke-linecap="round"></path>
<text dominant-baseline="central" text-anchor="middle" style="font-size:12px;font-family:sans-serif;" xml:space="preserve" y="-6" transform="translate(500 45)" fill="#6E7079">Ig in muA</text>
<path d="M100 395.5L900 395.5" fill="none" stroke="#6E7079" stroke-linecap="round"></path>
<text dominant-baseline="central" text-anchor="start" style="font-size:12px;font-family:sans-serif;" xml:space="preserve" transform="translate(915 395)" fill="#6E7079">U in V</text>
<path d="M500 730.5L495 730.5" fill="none" stroke="#6E7079"></path>
<path d="M500 618.5L495 618.5" fill="none" stroke="#6E7079"></path>
<path d="M500 506.5L495 506.5" fill="none" stroke="#6E7079"></path>
<path d="M500 395.5L495 395.5" fill="none" stroke="#6E7079"></path>
<path d="M500 283.5L495 283.5" fill="none" stroke="#6E7079"></path>
<path d="M500 171.5L495 171.5" fill="none" stroke="#6E7079"></path>
<path d="M500 60.5L495 60.5" fill="none" stroke="#6E7079"></path>
<path d="M100.5 395L100.5 400" fill="none" stroke="#6E7079"></path>
<path d="M233.5 395L233.5 400" fill="none" stroke="#6E7079"></path>
<path d="M366.5 395L366.5 400" fill="none" stroke="#6E7079"></path>
<path d="M500.5 395L500.5 400" fill="none" stroke="#6E7079"></path>
<path d="M633.5 395L633.5 400" fill="none" stroke="#6E7079"></path>
<path d="M766.5 395L766.5 400" fill="none" stroke="#6E7079"></path>
<path d="M900.5 395L900.5 400" fill="none" stroke="#6E7079"></path>
<text dominant-baseline="central" text-anchor="end" style="font-size:12px;font-family:sans-serif;" transform="translate(92 730)" fill="#6E7079">-15</text>
<text dominant-baseline="central" text-anchor="end" style="font-size:12px;font-family:sans-serif;" transform="translate(92 618.3333)" fill="#6E7079">-10</text>
<text dominant-baseline="central" text-anchor="end" style="font-size:12px;font-family:sans-serif;" transform="translate(92 506.6667)" fill="#6E7079">-5</text>
<text dominant-baseline="central" text-anchor="end" style="font-size:12px;font-family:sans-serif;" transform="translate(92 395)" fill="#6E7079">0</text>
<text dominant-baseline="central" text-anchor="end" style="font-size:12px;font-family:sans-serif;" transform="translate(92 283.3333)" fill="#6E7079">5</text>
<text dominant-baseline="central" text-anchor="end" style="font-size:12px;font-family:sans-serif;" transform="translate(92 171.6667)" fill="#6E7079">10</text>
<text dominant-baseline="central" text-anchor="end" style="font-size:12px;font-family:sans-serif;" transform="translate(92 60)" fill="#6E7079">15</text>
<text dominant-baseline="central" text-anchor="middle" style="font-size:12px;font-family:sans-serif;" y="6" transform="translate(100 738)" fill="#6E7079">-30</text>
<text dominant-baseline="central" text-anchor="middle" style="font-size:12px;font-family:sans-serif;" y="6" transform="translate(233.3333 738)" fill="#6E7079">-20</text>
<text dominant-baseline="central" text-anchor="middle" style="font-size:12px;font-family:sans-serif;" y="6" transform="translate(366.6667 738)" fill="#6E7079">-10</text>
<text dominant-baseline="central" text-anchor="middle" style="font-size:12px;font-family:sans-serif;" y="6" transform="translate(500 738)" fill="#6E7079">0</text>
<text dominant-baseline="central" text-anchor="middle" style="font-size:12px;font-family:sans-serif;" y="6" transform="translate(633.3333 738)" fill="#6E7079">10</text>
<text dominant-baseline="central" text-anchor="middle" style="font-size:12px;font-family:sans-serif;" y="6" transform="translate(766.6667 738)" fill="#6E7079">20</text>
<text dominant-baseline="central" text-anchor="middle" style="font-size:12px;font-family:sans-serif;" y="6" transform="translate(900 738)" fill="#6E7079">30</text>
<g clip-path="url(#zr6-c0)">
<path d="M106.7 672.1L108 671.5L109.3 670.9L110.7 670.3L112 669.8L113.3 669.2L114.7 668.5L116 668L117.3 667.4L118.7 666.7L120 666L121.3 665.5L122.7 665L124 664.3L125.3 663.7L126.7 663.2L128 662.5L129.3 662L130.7 661.3L132 660.6L133.3 660.1L134.7 659.5L136 659L137.3 658.3L138.7 657.7L140 657L141.3 656.5L142.7 656L144 655.4L145.3 654.8L146.7 654.3L148 653.7L149.3 653.1L150.7 652.5L152 651.9L153.3 651.4L154.7 650.8L156 650.3L157.3 649.6L158.7 649.1L160 648.5L161.3 647.9L162.7 647.2L164 646.5L165.3 645.9L166.7 645.3L168 644.6L169.3 644L170.7 643.3L172 642.7L173.3 642.1L174.7 641.4L176 640.8L177.3 640.1L178.7 639.5L180 638.8L181.3 638.2L182.7 637.5L184 636.9L185.3 636.3L186.7 635.7L188 635L189.3 634.4L190.7 633.9L192 633.3L193.3 632.7L194.7 632.1L196 631.6L197.3 631L198.7 630.4L200 629.8L201.3 629.1L202.7 628.5L204 627.8L205.3 627.3L206.7 626.6L208 626L209.3 625.3L210.7 624.7L212 624.1L213.3 623.5L214.7 622.8L216 622.2L217.3 621.6L218.7 620.9L220 620.3L221.3 619.7L222.7 618.9L224 618.2L225.3 617.6L226.7 616.9L228 616.4L229.3 615.8L230.7 615.1L232 614.6L233.3 613.9L234.7 613.5L236 612.8L237.3 612.2L238.7 611.4L240 610.8L241.3 610.1L242.7 609.6L244 608.9L245.3 608.1L246.7 607.4L248 606.7L249.3 606.1L250.7 605.5L252 604.8L253.3 604.1L254.7 603.4L256 602.7L257.3 602L258.7 601.3L260 600.6L261.3 599.9L262.7 599.1L264 598.4L265.3 597.7L266.7 597L268 596.3L269.3 595.6L270.7 594.8L272 594.1L273.3 593.4L274.7 592.7L276 592.1L277.3 591.4L278.7 590.7L280 590.1L281.3 589.4L282.7 588.8L284 588.1L285.3 587.4L286.7 586.9L288 586.2L289.3 585.5L290.7 584.8L292 584.1L293.3 583.5L294.7 582.9L296 582.1L297.3 581.4L298.7 580.6L300 579.9L301.3 579.2L302.7 578.5L304 577.8L305.3 577.1L306.7 576.3L308 575.5L309.3 574.8L310.7 573.9L312 573.1L313.3 572.3L314.7 571.4L316 570.7L317.3 569.9L318.7 569.1L320 568.4L321.3 567.5L322.7 566.8L324 566L325.3 565.3L326.7 564.5L328 563.8L329.3 563L330.7 562.1L332 561.3L333.3 560.4L334.7 559.6L336 558.9L337.3 558.1L338.7 557.4L340 556.5L341.3 555.8L342.7 555L344 554.3L345.3 553.5L346.7 552.6L348 551.7L349.3 550.9L350.7 550L352 549.2L353.3 548.3L354.7 547.5L356 546.7L357.3 545.8L358.7 545L360 544.2L361.3 543.3L362.7 542.5L364 541.6L365.3 540.7L366.7 539.8L368 538.9L369.3 538L370.7 537L372 536.1L373.3 535.2L374.7 534.3L376 533.4L377.3 532.6L378.7 531.6L380 530.6L381.3 529.7L382.7 528.8L384 527.8L385.3 526.9L386.7 525.9L388 524.8L389.3 523.8L390.7 522.8L392 521.8L393.3 520.8L394.7 519.7L396 518.7L397.3 517.7L398.7 516.6L400 515.5L401.3 514.4L402.7 513.3L404 512.2L405.3 511.1L406.7 510L408 508.8L409.3 507.7L410.7 506.5L412 505.4L413.3 504.1L414.7 502.9L416 501.7L417.3 500.5L418.7 499.3L420 498.1L421.3 496.8L422.7 495.5L424 494.2L425.3 492.8L426.7 491.5L428 490.2L429.3 488.7L430.7 487.4L432 485.9L433.3 484.5L434.7 483.1L436 481.6L437.3 480.1L438.7 478.7L440 477.1L441.3 475.6L442.7 474L444 472.5L445.3 470.9L446.7 469.3L448 467.6L449.3 466L450.7 464.3L452 462.6L453.3 460.9L454.7 459.3L456 457.5L457.3 455.8L458.7 454L460 452.2L461.3 450.3L462.7 448.5L464 446.6L465.3 444.7L466.7 442.7L468 440.8L469.3 438.9L470.7 436.9L472 434.9L473.3 432.9L474.7 431L476 428.9L477.3 426.9L478.7 424.9L480 422.8L481.3 420.7L482.7 418.6L484 416.6L485.3 414.5L486.7 412.3L488 410.2L489.3 408.1L490.7 405.9L492 403.8L493.3 401.6L494.7 399.5L496 397.3L497.3 395.2L498.7 393.2L500 391L501.3 388.8L502.7 386.7L504 384.5L505.3 382.4L506.7 380.3L508 378.1L509.3 376L510.7 373.9L512 371.8L513.3 369.7L514.7 367.6L516 365.6L517.3 363.6L518.7 361.6L520 359.6L521.3 357.6L522.7 355.7L524 353.7L525.3 351.7L526.7 349.7L528 347.9L529.3 346L530.7 344.2L532 342.3L533.3 340.5L534.7 338.7L536 336.9L537.3 335.1L538.7 333.4L540 331.7L541.3 330L542.7 328.4L544 326.7L545.3 325L546.7 323.5L548 321.9L549.3 320.4L550.7 318.8L552 317.4L553.3 315.9L554.7 314.4L556 313L557.3 311.5L558.7 310.1L560 308.7L561.3 307.3L562.7 306L564 304.7L565.3 303.4L566.7 302.2L568 300.9L569.3 299.7L570.7 298.5L572 297.3L573.3 296.2L574.7 295.1L576 293.9L577.3 292.8L578.7 291.7L580 290.6L581.3 289.5L582.7 288.5L584 287.3L585.3 286.4L586.7 285.4L588 284.4L589.3 283.5L590.7 282.6L592 281.7L593.3 280.8L594.7 279.9L596 279L597.3 278.1L598.7 277.1L600 276.3L601.3 275.4L602.7 274.5L604 273.6L605.3 272.7L606.7 271.9L608 271L609.3 270.2L610.7 269.4L612 268.6L613.3 267.8L614.7 267L616 266.2L617.3 265.5L618.7 264.7L620 263.9L621.3 263.1L622.7 262.3L624 261.6L625.3 260.9L626.7 260.2L628 259.4L629.3 258.7L630.7 257.9L632 257.3L633.3 256.6L634.7 255.9L636 255.3L637.3 254.6L638.7 254L640 253.3L641.3 252.6L642.7 251.9L644 251.2L645.3 250.5L646.7 249.9L648 249.3L649.3 248.7L650.7 248.1L652 247.5L653.3 246.8L654.7 246.2L656 245.6L657.3 245L658.7 244.4L660 243.8L661.3 243.2L662.7 242.6L664 242L665.3 241.4L666.7 240.7L668 240.2L669.3 239.6L670.7 239L672 238.5L673.3 237.9L674.7 237.3L676 236.7L677.3 236.1L678.7 235.6L680 235L681.3 234.4L682.7 233.8L684 233.3L685.3 232.7L686.7 232.1L688 231.6L689.3 231L690.7 230.4L692 229.8L693.3 229.3L694.7 228.7L696 228.2L697.3 227.6L698.7 227.1L700 226.6L701.3 226L702.7 225.5L704 224.9L705.3 224.3L706.7 223.8L708 223.2L709.3 222.6L710.7 222.1L712 221.5L713.3 220.9L714.7 220.4L716 219.8L717.3 219.3L718.7 218.8L720 218.2L721.3 217.7L722.7 217.3L724 216.7L725.3 216.1L726.7 215.5L728 215L729.3 214.6L730.7 214L732 213.4L733.3 212.9L734.7 212.3L736 211.8L737.3 211.4L738.7 210.9L740 210.4L741.3 209.9L742.7 209.3L744 208.8L745.3 208.3L746.7 207.8L748 207.2L749.3 206.6L750.7 205.9L752 205.4L753.3 204.8L754.7 204.2L756 203.7L757.3 203L758.7 202.5L760 202L761.3 201.4L762.7 200.9L764 200.3L765.3 199.6L766.7 199.1L768 198.5L769.3 198L770.7 197.5L772 197L773.3 196.4L774.7 195.8L776 195.3L777.3 194.7L778.7 194.3L780 193.7L781.3 193.3L782.7 192.7L784 192.2L785.3 191.7L786.7 191.1L788 190.7L789.3 190.2L790.7 189.7L792 189.3L793.3 188.7L794.7 188.1L796 187.5L797.3 187L798.7 186.4L800 185.8L801.3 185.3L802.7 184.7L804 184.3L805.3 183.9L806.7 183.3L808 182.8L809.3 182.2L810.7 181.7L812 181L813.3 180.6L814.7 180L816 179.4L817.3 178.7L818.7 178.2L820 177.5L821.3 177L822.7 176.5L824 176L825.3 175.4L826.7 174.8L828 174.4L829.3 173.8L830.7 173.2L832 172.5L833.3 171.8L834.7 171.2L836 170.5L837.3 170L838.7 169.5L840 168.9L841.3 168.3L842.7 167.7L844 167.1L845.3 166.7L846.7 166.1L848 165.5L849.3 164.8L850.7 164.3L852 163.7L853.3 163.1L854.7 162.7L856 162L857.3 161.4L858.7 160.9L860 160.4L861.3 160.1L862.7 159.5L864 159L865.3 158.5L866.7 157.9L868 157.3L869.3 156.7L870.7 156.3L872 155.7L873.3 155.1L874.7 154.6L876 154.2L877.3 153.7L878.7 153.3L880 152.8L881.3 152.2L882.7 151.6L884 151.1L885.3 150.6L886.7 150L888 149.5L889.3 148.9L890.7 148.4L892 147.8L893.3 147.3L894.7 146.7" fill="none" stroke="#5470c6" stroke-width="2" stroke-linejoin="bevel"></path>
</g>
<g clip-path="url(#zr6-c1)">
<path d="M106.7 672.5L108 671.9L109.3 671.3L110.7 670.7L112 670L113.3 669.4L114.7 668.8L116 668.2L117.3 667.6L118.7 667L120 666.4L121.3 665.7L122.7 665.1L124 664.5L125.3 663.9L126.7 663.3L128 662.7L129.3 662.1L130.7 661.5L132 660.8L133.3 660.2L134.7 659.6L136 659L137.3 658.4L138.7 657.8L140 657.2L141.3 656.6L142.7 655.9L144 655.3L145.3 654.7L146.7 654.1L148 653.5L149.3 652.9L150.7 652.3L152 651.6L153.3 651L154.7 650.4L156 649.8L157.3 649.2L158.7 648.6L160 648L161.3 647.4L162.7 646.7L164 646.1L165.3 645.5L166.7 644.9L168 644.3L169.3 643.7L170.7 643.1L172 642.5L173.3 641.8L174.7 641.2L176 640.6L177.3 640L178.7 639.4L180 638.8L181.3 638.2L182.7 637.5L184 636.9L185.3 636.3L186.7 635.7L188 635.1L189.3 634.5L190.7 633.9L192 633.3L193.3 632.6L194.7 632L196 631.4L197.3 630.8L198.7 630.2L200 629.6L201.3 629L202.7 628.4L204 627.7L205.3 627.1L206.7 626.5L208 625.9L209.3 625.3L210.7 624.7L212 624.1L213.3 623.4L214.7 622.8L216 622.2L217.3 621.6L218.7 621L220 620.4L221.3 619.8L222.7 619.2L224 618.5L225.3 617.9L226.7 617.3L228 616.7L229.3 616.1L230.7 615.5L232 614.9L233.3 614.2L234.7 613.6L236 613L237.3 612.4L238.7 611.8L240 611.2L241.3 610.6L242.7 610L244 609.3L245.3 608.7L246.7 608.1L248 607.5L249.3 606.9L250.7 606.3L252 605.7L253.3 605.1L254.7 604.4L256 603.8L257.3 603.2L258.7 602.6L260 602L261.3 601.4L262.7 600.8L264 600.1L265.3 599.5L266.7 598.9L268 598.3L269.3 597.7L270.7 597.1L272 596.5L273.3 595.9L274.7 595.2L276 594.6L277.3 594L278.7 593.4L280 592.8L281.3 592.2L282.7 591.6L284 591L285.3 590.3L286.7 589.7L288 589.1L289.3 588.5L290.7 587.9L292 587.3L293.3 586.7L294.7 586L296 585.4L297.3 584.8L298.7 584.2L300 583.6L301.3 583L302.7 582.4L304 581.8L305.3 581.1L306.7 580.5L308 579.9L309.3 579.3L310.7 578.7L312 578.1L313.3 577.5L314.7 576.9L316 576.2L317.3 575.6L318.7 575L320 574.4L321.3 573.8L322.7 573.2L324 572.6L325.3 571.9L326.7 571.3L328 570.7L329.3 570.1L330.7 569.5L332 568.9L333.3 568.3L334.7 567.7L336 567L337.3 566.4L338.7 565.8L340 565.2L341.3 564.6L342.7 564L344 563.4L345.3 562.8L346.7 562.1L348 561.5L349.3 560.9L350.7 560.3L352 559.7L353.3 559.1L354.7 558.5L356 557.8L357.3 557.2L358.7 556.6L360 556L361.3 555.4L362.7 554.8L364 554.2L365.3 553.6L366.7 552.9L368 552.3L369.3 551.7L370.7 551.1L372 550.5L373.3 549.9L374.7 549.3L376 548.6L377.3 548L378.7 547.4L380 546.8L381.3 546.2L382.7 545.6L384 545L385.3 544.4L386.7 543.7L388 543.1L389.3 542.5L390.7 541.9L392 541.3L393.3 540.7L394.7 540.1L396 539.5L397.3 538.8L398.7 538.2L400 537.6L401.3 537L402.7 536.4L404 535.8L405.3 535.2L406.7 534.5L408 533.9L409.3 533.3L410.7 532.7L412 532.1L413.3 531.5L414.7 530.9L416 530.3L417.3 529.6L418.7 529L420 528.4L421.3 527.8L422.7 527.2L424 526.6L425.3 526L426.7 525.4L428 524.7L429.3 524.1L430.7 523.5L432 522.9L433.3 522.3L434.7 521.7L436 521.1L437.3 520.4L438.7 519.8L440 519.2L441.3 518.6L442.7 518L444 517.4L445.3 516.8L446.7 516.2L448 515.5L449.3 514.9L450.7 514.3L452 513.7L453.3 513.1L454.7 512.5L456 511.9L457.3 511.3L458.7 510.6L460 510L461.3 509.4L462.7 508.8L464 508.2L465.3 507.6L466.7 507L468 506.3L469.3 505.7L470.7 505.1L472 504.5L473.3 503.9L474.7 503.3L476 502.7L477.3 502.1L478.7 501.4L480 500.8L481.3 500.2L482.7 499.6L484 499L485.3 498.4L486.7 497.8L488 497.2L489.3 496.5L490.7 495.9L492 495.3L493.3 494.7L494.7 494.1L496 493.5L497.3 492.9L498.7 492.2L500 491.6L501.3 491L502.7 490.4L504 489.8L505.3 489.2L506.7 488.6L508 488L509.3 487.3L510.7 486.7L512 486.1L513.3 485.5L514.7 484.9L516 484.3L517.3 483.7L518.7 483L520 482.4L521.3 481.8L522.7 481.2L524 480.6L525.3 480L526.7 479.4L528 478.8L529.3 478.1L530.7 477.5L532 476.9L533.3 476.3L534.7 475.7L536 475.1L537.3 474.5L538.7 473.9L540 473.2L541.3 472.6L542.7 472L544 471.4L545.3 470.8L546.7 470.2L548 469.6L549.3 468.9L550.7 468.3L552 467.7L553.3 467.1L554.7 466.5L556 465.9L557.3 465.3L558.7 464.7L560 464L561.3 463.4L562.7 462.8L564 462.2L565.3 461.6L566.7 461L568 460.4L569.3 459.8L570.7 459.1L572 458.5L573.3 457.9L574.7 457.3L576 456.7L577.3 456.1L578.7 455.5L580 454.8L581.3 454.2L582.7 453.6L584 453L585.3 452.4L586.7 451.8L588 451.2L589.3 450.6L590.7 449.9L592 449.3L593.3 448.7L594.7 448.1L596 447.5L597.3 446.9L598.7 446.3L600 445.7L601.3 445L602.7 444.4L604 443.8L605.3 443.2L606.7 442.6L608 442L609.3 441.4L610.7 440.7L612 440.1L613.3 439.5L614.7 438.9L616 438.3L617.3 437.7L618.7 437.1L620 436.5L621.3 435.8L622.7 435.2L624 434.6L625.3 434L626.7 433.4L628 432.8L629.3 432.2L630.7 431.6L632 430.9L633.3 430.3L634.7 429.7L636 429.1L637.3 428.5L638.7 427.9L640 427.3L641.3 426.6L642.7 426L644 425.4L645.3 424.8L646.7 424.2L648 423.6L649.3 423L650.7 422.4L652 421.7L653.3 421.1L654.7 420.5L656 419.9L657.3 419.3L658.7 418.7L660 418.1L661.3 417.4L662.7 416.8L664 416.2L665.3 415.6L666.7 415L668 414.4L669.3 413.8L670.7 413.2L672 412.5L673.3 411.9L674.7 411.3L676 410.7L677.3 410.1L678.7 409.5L680 408.9L681.3 408.3L682.7 407.6L684 407L685.3 406.4L686.7 405.8L688 405.2L689.3 404.6L690.7 404L692 403.3L693.3 402.7L694.7 402.1L696 401.5L697.3 400.9L698.7 400.3L700 399.7L701.3 399.1L702.7 398.4L704 397.8L705.3 397.2L706.7 396.6L708 396L709.3 395.4L710.7 394.8L712 394.2L713.3 393.5L714.7 392.9L716 392.3L717.3 391.7L718.7 391.1L720 390.5L721.3 389.9L722.7 389.2L724 388.6L725.3 388L726.7 387.4L728 386.8L729.3 386.2L730.7 385.6L732 385L733.3 384.3L734.7 383.7L736 383.1L737.3 382.5L738.7 381.9L740 381.3L741.3 380.7L742.7 380.1L744 379.4L745.3 378.8L746.7 378.2L748 377.6L749.3 377L750.7 376.4L752 375.8L753.3 375.1L754.7 374.5L756 373.9L757.3 373.3L758.7 372.7L760 372.1L761.3 371.5L762.7 370.9L764 370.2L765.3 369.6L766.7 369L768 368.4L769.3 367.8L770.7 367.2L772 366.6L773.3 366L774.7 365.3L776 364.7L777.3 364.1L778.7 363.5L780 362.9L781.3 362.3L782.7 361.7L784 361L785.3 360.4L786.7 359.8L788 359.2L789.3 358.6L790.7 358L792 357.4L793.3 356.8L794.7 356.1L796 355.5L797.3 354.9L798.7 354.3L800 353.7L801.3 353.1L802.7 352.5L804 351.8L805.3 351.2L806.7 350.6L808 350L809.3 349.4L810.7 348.8L812 348.2L813.3 347.6L814.7 346.9L816 346.3L817.3 345.7L818.7 345.1L820 344.5L821.3 343.9L822.7 343.3L824 342.7L825.3 342L826.7 341.4L828 340.8L829.3 340.2L830.7 339.6L832 339L833.3 338.4L834.7 337.7L836 337.1L837.3 336.5L838.7 335.9L840 335.3L841.3 334.7L842.7 334.1L844 333.5L845.3 332.8L846.7 332.2L848 331.6L849.3 331L850.7 330.4L852 329.8L853.3 329.2L854.7 328.6L856 327.9L857.3 327.3L858.7 326.7L860 326.1L861.3 325.5L862.7 324.9L864 324.3L865.3 323.6L866.7 323L868 322.4L869.3 321.8L870.7 321.2L872 320.6L873.3 320L874.7 319.4L876 318.7L877.3 318.1L878.7 317.5L880 316.9L881.3 316.3L882.7 315.7L884 315.1L885.3 314.5L886.7 313.8L888 313.2L889.3 312.6L890.7 312L892 311.4L893.3 310.8L894.7 310.2" fill="none" stroke="#91cc75" stroke-width="2" stroke-linejoin="bevel"></path>
</g>
<g clip-path="url(#zr6-c2)">
<path d="M106.7 473.4L108 472.8L109.3 472.3L110.7 471.7L112 471.1L113.3 470.6L114.7 470L116 469.5L117.3 468.9L118.7 468.4L120 467.8L121.3 467.3L122.7 466.7L124 466.2L125.3 465.6L126.7 465.1L128 464.5L129.3 464L130.7 463.4L132 462.8L133.3 462.3L134.7 461.7L136 461.2L137.3 460.6L138.7 460.1L140 459.5L141.3 459L142.7 458.4L144 457.9L145.3 457.3L146.7 456.8L148 456.2L149.3 455.7L150.7 455.1L152 454.6L153.3 454L154.7 453.4L156 452.9L157.3 452.3L158.7 451.8L160 451.2L161.3 450.7L162.7 450.1L164 449.6L165.3 449L166.7 448.5L168 447.9L169.3 447.4L170.7 446.8L172 446.3L173.3 445.7L174.7 445.1L176 444.6L177.3 444L178.7 443.5L180 442.9L181.3 442.4L182.7 441.8L184 441.3L185.3 440.7L186.7 440.2L188 439.6L189.3 439.1L190.7 438.5L192 438L193.3 437.4L194.7 436.8L196 436.3L197.3 435.7L198.7 435.2L200 434.6L201.3 434.1L202.7 433.5L204 433L205.3 432.4L206.7 431.9L208 431.3L209.3 430.8L210.7 430.2L212 429.7L213.3 429.1L214.7 428.6L216 428L217.3 427.4L218.7 426.9L220 426.3L221.3 425.8L222.7 425.2L224 424.7L225.3 424.1L226.7 423.6L228 423L229.3 422.5L230.7 421.9L232 421.4L233.3 420.8L234.7 420.3L236 419.7L237.3 419.1L238.7 418.6L240 418L241.3 417.5L242.7 416.9L244 416.4L245.3 415.8L246.7 415.3L248 414.7L249.3 414.2L250.7 413.6L252 413.1L253.3 412.5L254.7 412L256 411.4L257.3 410.9L258.7 410.3L260 409.7L261.3 409.2L262.7 408.6L264 408.1L265.3 407.5L266.7 407L268 406.4L269.3 405.9L270.7 405.3L272 404.8L273.3 404.2L274.7 403.7L276 403.1L277.3 402.6L278.7 402L280 401.4L281.3 400.9L282.7 400.3L284 399.8L285.3 399.2L286.7 398.7L288 398.1L289.3 397.6L290.7 397L292 396.5L293.3 395.9L294.7 395.4L296 394.8L297.3 394.3L298.7 393.7L300 393.1L301.3 392.6L302.7 392L304 391.5L305.3 390.9L306.7 390.4L308 389.8L309.3 389.3L310.7 388.7L312 388.2L313.3 387.6L314.7 387.1L316 386.5L317.3 386L318.7 385.4L320 384.9L321.3 384.3L322.7 383.7L324 383.2L325.3 382.6L326.7 382.1L328 381.5L329.3 381L330.7 380.4L332 379.9L333.3 379.3L334.7 378.8L336 378.2L337.3 377.7L338.7 377.1L340 376.6L341.3 376L342.7 375.4L344 374.9L345.3 374.3L346.7 373.8L348 373.2L349.3 372.7L350.7 372.1L352 371.6L353.3 371L354.7 370.5L356 369.9L357.3 369.4L358.7 368.8L360 368.3L361.3 367.7L362.7 367.1L364 366.6L365.3 366L366.7 365.5L368 364.9L369.3 364.4L370.7 363.8L372 363.3L373.3 362.7L374.7 362.2L376 361.6L377.3 361.1L378.7 360.5L380 360L381.3 359.4L382.7 358.9L384 358.3L385.3 357.7L386.7 357.2L388 356.6L389.3 356.1L390.7 355.5L392 355L393.3 354.4L394.7 353.9L396 353.3L397.3 352.8L398.7 352.2L400 351.7L401.3 351.1L402.7 350.6L404 350L405.3 349.4L406.7 348.9L408 348.3L409.3 347.8L410.7 347.2L412 346.7L413.3 346.1L414.7 345.6L416 345L417.3 344.5L418.7 343.9L420 343.4L421.3 342.8L422.7 342.3L424 341.7L425.3 341.1L426.7 340.6L428 340L429.3 339.5L430.7 338.9L432 338.4L433.3 337.8L434.7 337.3L436 336.7L437.3 336.2L438.7 335.6L440 335.1L441.3 334.5L442.7 334L444 333.4L445.3 332.9L446.7 332.3L448 331.7L449.3 331.2L450.7 330.6L452 330.1L453.3 329.5L454.7 329L456 328.4L457.3 327.9L458.7 327.3L460 326.8L461.3 326.2L462.7 325.7L464 325.1L465.3 324.6L466.7 324L468 323.4L469.3 322.9L470.7 322.3L472 321.8L473.3 321.2L474.7 320.7L476 320.1L477.3 319.6L478.7 319L480 318.5L481.3 317.9L482.7 317.4L484 316.8L485.3 316.3L486.7 315.7L488 315.1L489.3 314.6L490.7 314L492 313.5L493.3 312.9L494.7 312.4L496 311.8L497.3 311.3L498.7 310.7L500 310.2L501.3 309.6L502.7 309.1L504 308.5L505.3 308L506.7 307.4L508 306.9L509.3 306.3L510.7 305.7L512 305.2L513.3 304.6L514.7 304.1L516 303.5L517.3 303L518.7 302.4L520 301.9L521.3 301.3L522.7 300.8L524 300.2L525.3 299.7L526.7 299.1L528 298.6L529.3 298L530.7 297.4L532 296.9L533.3 296.3L534.7 295.8L536 295.2L537.3 294.7L538.7 294.1L540 293.6L541.3 293L542.7 292.5L544 291.9L545.3 291.4L546.7 290.8L548 290.3L549.3 289.7L550.7 289.2L552 288.6L553.3 288L554.7 287.5L556 286.9L557.3 286.4L558.7 285.8L560 285.3L561.3 284.7L562.7 284.2L564 283.6L565.3 283.1L566.7 282.5L568 282L569.3 281.4L570.7 280.9L572 280.3L573.3 279.7L574.7 279.2L576 278.6L577.3 278.1L578.7 277.5L580 277L581.3 276.4L582.7 275.9L584 275.3L585.3 274.8L586.7 274.2L588 273.7L589.3 273.1L590.7 272.6L592 272L593.3 271.4L594.7 270.9L596 270.3L597.3 269.8L598.7 269.2L600 268.7L601.3 268.1L602.7 267.6L604 267L605.3 266.5L606.7 265.9L608 265.4L609.3 264.8L610.7 264.3L612 263.7L613.3 263.2L614.7 262.6L616 262L617.3 261.5L618.7 260.9L620 260.4L621.3 259.8L622.7 259.3L624 258.7L625.3 258.2L626.7 257.6L628 257.1L629.3 256.5L630.7 256L632 255.4L633.3 254.9L634.7 254.3L636 253.7L637.3 253.2L638.7 252.6L640 252.1L641.3 251.5L642.7 251L644 250.4L645.3 249.9L646.7 249.3L648 248.8L649.3 248.2L650.7 247.7L652 247.1L653.3 246.6L654.7 246L656 245.4L657.3 244.9L658.7 244.3L660 243.8L661.3 243.2L662.7 242.7L664 242.1L665.3 241.6L666.7 241L668 240.5L669.3 239.9L670.7 239.4L672 238.8L673.3 238.3L674.7 237.7L676 237.2L677.3 236.6L678.7 236L680 235.5L681.3 234.9L682.7 234.4L684 233.8L685.3 233.3L686.7 232.7L688 232.2L689.3 231.6L690.7 231.1L692 230.5L693.3 230L694.7 229.4L696 228.9L697.3 228.3L698.7 227.7L700 227.2L701.3 226.6L702.7 226.1L704 225.5L705.3 225L706.7 224.4L708 223.9L709.3 223.3L710.7 222.8L712 222.2L713.3 221.7L714.7 221.1L716 220.6L717.3 220L718.7 219.4L720 218.9L721.3 218.3L722.7 217.8L724 217.2L725.3 216.7L726.7 216.1L728 215.6L729.3 215L730.7 214.5L732 213.9L733.3 213.4L734.7 212.8L736 212.3L737.3 211.7L738.7 211.2L740 210.6L741.3 210L742.7 209.5L744 208.9L745.3 208.4L746.7 207.8L748 207.3L749.3 206.7L750.7 206.2L752 205.6L753.3 205.1L754.7 204.5L756 204L757.3 203.4L758.7 202.9L760 202.3L761.3 201.7L762.7 201.2L764 200.6L765.3 200.1L766.7 199.5L768 199L769.3 198.4L770.7 197.9L772 197.3L773.3 196.8L774.7 196.2L776 195.7L777.3 195.1L778.7 194.6L780 194L781.3 193.5L782.7 192.9L784 192.3L785.3 191.8L786.7 191.2L788 190.7L789.3 190.1L790.7 189.6L792 189L793.3 188.5L794.7 187.9L796 187.4L797.3 186.8L798.7 186.3L800 185.7L801.3 185.2L802.7 184.6L804 184L805.3 183.5L806.7 182.9L808 182.4L809.3 181.8L810.7 181.3L812 180.7L813.3 180.2L814.7 179.6L816 179.1L817.3 178.5L818.7 178L820 177.4L821.3 176.9L822.7 176.3L824 175.7L825.3 175.2L826.7 174.6L828 174.1L829.3 173.5L830.7 173L832 172.4L833.3 171.9L834.7 171.3L836 170.8L837.3 170.2L838.7 169.7L840 169.1L841.3 168.6L842.7 168L844 167.5L845.3 166.9L846.7 166.3L848 165.8L849.3 165.2L850.7 164.7L852 164.1L853.3 163.6L854.7 163L856 162.5L857.3 161.9L858.7 161.4L860 160.8L861.3 160.3L862.7 159.7L864 159.2L865.3 158.6L866.7 158L868 157.5L869.3 156.9L870.7 156.4L872 155.8L873.3 155.3L874.7 154.7L876 154.2L877.3 153.6L878.7 153.1L880 152.5L881.3 152L882.7 151.4L884 150.9L885.3 150.3L886.7 149.7L888 149.2L889.3 148.6L890.7 148.1L892 147.5L893.3 147L894.7 146.4" fill="none" stroke="#fac858" stroke-width="2" stroke-linejoin="bevel"></path>
</g>
<path d="M-0.54 -0.89A0.6 0.6 0 1 1 0.54 -0.89C0.39 -0.56 0 -0.42 0 0C0 -0.42 -0.39 -0.56 -0.54 -0.89Z" transform="matrix(25,0,0,25,500,491.6329)" fill="#91cc75"></path>
<path d="M-0.54 -0.89A0.6 0.6 0 1 1 0.54 -0.89C0.39 -0.56 0 -0.42 0 0C0 -0.42 -0.39 -0.56 -0.54 -0.89Z" transform="matrix(25,0,0,25,500,310.1712)" fill="#fac858"></path>
<text dominant-baseline="central" text-anchor="middle" style="font-size:12px;font-family:sans-serif;" transform="translate(500 465.49)" fill="#333">-4.3</text>
<text dominant-baseline="central" text-anchor="middle" style="font-size:12px;font-family:sans-serif;" transform="translate(500 284.0284)" fill="#333">3.8</text>
<defs >
<clipPath id="zr6-c0">
<path d="M99 59l802 0l0 672l-802 0Z" fill="#000"></path>
</clipPath>
<clipPath id="zr6-c1">
<path d="M99 59l802 0l0 672l-802 0Z" fill="#000"></path>
</clipPath>
<clipPath id="zr6-c2">
<path d="M99 59l802 0l0 672l-802 0Z" fill="#000"></path>
</clipPath>
</defs>
</svg>