<svg width="1000" height="800" xmlns="http://www.w3.org/2000/svg" xmlns:xlink="http://www.w3.org/1999/xlink" version="1.1" baseProfile="full" viewBox="0 0 1000 800">
<rect width="1000" height="800" x="0" y="0" id="0" fill="none"></rect>
<path d="M100 730.5L900 730.5" fill="none" stroke="#E0E6F1"></path>
<path d="M100 618.5L900 618.5" fill="none" stroke="#E0E6F1"></path>
<path d="M100 506.5L900 506.5" fill="none" stroke="#E0E6F1"></path>
<path d="M100 395.5L900 395.5" fill="none" stroke="#E0E6F1"></path>
<path d="M100 283.5L900 283.5" fill="none" stroke="#E0E6F1"></path>
<path d="M100 171.5L900 171.5" fill="none" stroke="#E0E6F1"></path>
<path d="M100 60.5L900 60.5" fill="none" stroke="#E0E6F1"></path>
<path d="M100.5 60L100.5 730" fill="none" stroke="#E0E6F1"></path>
<path d="M233.5 60L233.5 730" fill="none" stroke="#E0E6F1"></path>
<path d="M366.5 60L366.5 730" fill="none" stroke="#E0E6F1"></path>
<path d="M500.5 60L500.5 730" fill="none" stroke="#E0E6F1"></path>
<path d="M633.5 60L633.5 730" fill="none" stroke="#E0E6F1"></path>
<path d="M766.5 60L766.5 730" fill="none" stroke="#E0E6F1"></path>
<path d="M900.5 60L900.5 730" fill="none" stroke="#E0E6F1"></path>
<path d="M500.5 730L500.5 60" fill="none" stroke="#6E7079" stroke-linecap="round"></path>
<text dominant-baseline="central" text-anchor="middle" style="font-size:12px;font-family:sans-serif;" xml:space="preserve" y="-6" transform="translate(500 45)" fill="#6E7079">Ig in muA</text>
<path d="M100 395.5L900 395.5" fill="none" stroke="#6E7079" stroke-linecap="round"></path>
<text dominant-baseline="central" text-anchor="start" style="font-size:12px;font-family:sans-serif;" xml:space="preserve" transform="translate(915 395)" fill="#6E7079">U in V</text>
<path d="M500 730.5L495 730.5" fill="none" stroke="#6E7079"></path>
<path d="M500 618.5L495 618.5" fill="none" stroke="#6E7079"></path>
<path d="M500 506.5L495 506.5" fill="none" stroke="#6E7079"></path>
<path d="M500 395.5L495 395.5" fill="none" stroke="#6E7079"></path>
<path d="M500 283.5L495 283.5" fill="none" stroke="#6E7079"></path>
<path d="M500 171.5L495 171.5" fill="none" stroke="#6E7079"></path>
<path d="M500 60.5L495 60.5" fill="none" stroke="#6E7079"></path>
<path d="M100.5 395L100.5 400" fill="none" stroke="#6E7079"></path>
<path d="M233.5 395L233.5 400" fill="none" stroke="#6E7079"></path>
<path d="M366.5 395L366.5 400" fill="none" stroke="#6E7079"></path>
<path d="M500.5 395L500.5 400" fill="none" stroke="#6E7079"></path>
<path d="M633.5 395L633.5 400" fill="none" stroke="#6E7079"></path>
<path d="M766.5 395L766.5 400" fill="none" stroke="#6E7079"></path>
<path d="M900.5 395L900.5 400" fill="none" stroke="#6E7079"></path>
<text dominant-baseline="central" text-anchor="end" style="font-size:12px;font-family:sans-serif;" transform="translate(92 730)" fill="#6E7079">-15</text>
<text dominant-baseline="central" text-anchor="end" style="font-size:12px;font-family:sans-serif;" transform="translate(92 618.3333)" fill="#6E7079">-10</text>
<text dominant-baseline="central" text-anchor="end" style="font-size:12px;font-family:sans-serif;" transform="translate(92 506.6667)" fill="#6E7079">-5</text>
<text dominant-baseline="central" text-anchor="end" style="font-size:12px;font-family:sans-serif;" transform="translate(92 395)" fill="#6E7079">0</text>
<text dominant-baseline="central" text-anchor="end" style="font-size:12px;font-family:sans-serif;" transform="translate(92 283.3333)" fill="#6E7079">5</text>
<text dominant-baseline="central" text-anchor="end" style="font-size:12px;font-family:sans-serif;" transform="translate(92 171.6667)" fill="#6E7079">10</text>
<text dominant-baseline="central" text-anchor="end" style="font-size:12px;font-family:sans-serif;" transform="translate(92 60)" fill="#6E7079">15</text>
<text dominant-baseline="central" text-anchor="middle" style="font-size:12px;font-family:sans-serif;" y="6" transform="translate(100 738)" fill="#6E7079">-30</text>
<text dominant-baseline="central" text-anchor="middle" style="font-size:12px;font-family:sans-serif;" y="6" transform="translate(233.3333 738)" fill="#6E7079">-20</text>
<text dominant-baseline="central" text-anchor="middle" style="font-size:12px;font-family:sans-serif;" y="6" transform="translate(366.6667 738)" fill="#6E7079">-10</text>
<text dominant-baseline="central" text-anchor="middle" style="font-size:12px;font-family:sans-serif;" y="6" transform="translate(500 738)" fill="#6E7079">0</text>
<text dominant-baseline="central" text-anchor="middle" style="font-size:12px;font-family:sans-serif;" y="6" transform="translate(633.3333 738)" fill="#6E7079">10</text>
<text dominant-baseline="central" text-anchor="middle" style="font-size:12px;font-family:sans-serif;" y="6" transform="translate(766.6667 738)" fill="#6E7079">20</text>
<text dominant-baseline="central" text-anchor="middle" style="font-size:12px;font-family:sans-serif;" y="6" transform="translate(900 738)" fill="#6E7079">30</text>
<g clip-path="url(#zr5-c0)">
<path d="M106.7 682.3L108 681.6L109.3 680.9L110.7 680.2L112 679.6L113.3 678.9L114.7 678.1L116 677.6L117.3 676.9L118.7 676.2L120 675.5L121.3 675L122.7 674.3L124 673.7L125.3 673.1L126.7 672.5L128 671.8L129.3 671.2L130.7 670.8L132 670.2L133.3 669.4L134.7 668.9L136 668.2L137.3 667.6L138.7 667L140 666.4L141.3 665.8L142.7 665.2L144 664.6L145.3 663.9L146.7 663.4L148 662.8L149.3 662.2L150.7 661.6L152 660.9L153.3 660.3L154.7 659.6L156 659L157.3 658.4L158.7 657.6L160 657L161.3 656.5L162.7 655.8L164 655.1L165.3 654.5L166.7 653.9L168 653.3L169.3 652.6L170.7 652L172 651.3L173.3 650.7L174.7 650.1L176 649.4L177.3 648.8L178.7 648.2L180 647.6L181.3 646.9L182.7 646.4L184 645.7L185.3 645L186.7 644.4L188 643.6L189.3 642.9L190.7 642.3L192 641.6L193.3 640.9L194.7 640.3L196 639.7L197.3 639.1L198.7 638.5L200 638L201.3 637.3L202.7 636.5L204 635.9L205.3 635.3L206.7 634.6L208 634L209.3 633.3L210.7 632.6L212 631.9L213.3 631.3L214.7 630.7L216 630.1L217.3 629.5L218.7 628.8L220 628.2L221.3 627.6L222.7 626.9L224 626.1L225.3 625.5L226.7 624.8L228 624.1L229.3 623.4L230.7 622.9L232 622.1L233.3 621.5L234.7 620.7L236 620.1L237.3 619.5L238.7 618.8L240 618.1L241.3 617.4L242.7 616.6L244 615.9L245.3 615.4L246.7 614.8L248 614.2L249.3 613.5L250.7 612.9L252 612.2L253.3 611.4L254.7 610.7L256 610.1L257.3 609.3L258.7 608.7L260 607.9L261.3 607.2L262.7 606.6L264 605.9L265.3 605.2L266.7 604.5L268 603.8L269.3 603.1L270.7 602.4L272 601.7L273.3 600.9L274.7 600.1L276 599.3L277.3 598.6L278.7 597.9L280 597.1L281.3 596.4L282.7 595.6L284 594.8L285.3 594.1L286.7 593.3L288 592.5L289.3 591.8L290.7 591L292 590.2L293.3 589.5L294.7 588.8L296 588L297.3 587.3L298.7 586.5L300 585.7L301.3 585L302.7 584.2L304 583.5L305.3 582.7L306.7 581.9L308 581.2L309.3 580.4L310.7 579.7L312 578.9L313.3 578.2L314.7 577.4L316 576.6L317.3 575.8L318.7 575.1L320 574.4L321.3 573.5L322.7 572.7L324 571.9L325.3 571.1L326.7 570.4L328 569.7L329.3 568.9L330.7 568L332 567.2L333.3 566.4L334.7 565.6L336 564.8L337.3 564L338.7 563.2L340 562.4L341.3 561.6L342.7 560.7L344 559.9L345.3 559L346.7 558.2L348 557.3L349.3 556.6L350.7 555.7L352 554.8L353.3 553.9L354.7 553L356 552.1L357.3 551.1L358.7 550.3L360 549.4L361.3 548.5L362.7 547.6L364 546.7L365.3 545.8L366.7 544.9L368 543.9L369.3 543L370.7 542.1L372 541.1L373.3 540.1L374.7 539.1L376 538.1L377.3 537.1L378.7 536.1L380 535.2L381.3 534.1L382.7 533.1L384 532.1L385.3 531.1L386.7 530.1L388 529L389.3 528L390.7 526.9L392 525.8L393.3 524.7L394.7 523.6L396 522.6L397.3 521.4L398.7 520.3L400 519.3L401.3 518.2L402.7 517.1L404 516L405.3 514.8L406.7 513.6L408 512.4L409.3 511.2L410.7 510L412 508.8L413.3 507.6L414.7 506.4L416 505.1L417.3 503.8L418.7 502.5L420 501.2L421.3 499.9L422.7 498.6L424 497.2L425.3 495.9L426.7 494.5L428 493L429.3 491.6L430.7 490.1L432 488.6L433.3 487.2L434.7 485.7L436 484.2L437.3 482.7L438.7 481.1L440 479.5L441.3 477.9L442.7 476.3L444 474.6L445.3 473L446.7 471.4L448 469.7L449.3 468.1L450.7 466.3L452 464.6L453.3 462.7L454.7 461L456 459.2L457.3 457.4L458.7 455.6L460 453.8L461.3 451.9L462.7 450L464 448.1L465.3 446.1L466.7 444.2L468 442.3L469.3 440.3L470.7 438.3L472 436.3L473.3 434.2L474.7 432.1L476 430.1L477.3 428L478.7 425.9L480 423.8L481.3 421.7L482.7 419.6L484 417.5L485.3 415.3L486.7 413.1L488 411L489.3 408.8L490.7 406.6L492 404.4L493.3 402.2L494.7 400L496 397.7L497.3 395.6L498.7 393.5L500 391.3L501.3 389.1L502.7 387L504 384.8L505.3 382.6L506.7 380.4L508 378.2L509.3 376L510.7 373.9L512 371.7L513.3 369.6L514.7 367.5L516 365.4L517.3 363.3L518.7 361.3L520 359.3L521.3 357.2L522.7 355.3L524 353.3L525.3 351.2L526.7 349.1L528 347.2L529.3 345.2L530.7 343.3L532 341.4L533.3 339.6L534.7 337.7L536 335.9L537.3 334.1L538.7 332.3L540 330.6L541.3 328.9L542.7 327.2L544 325.5L545.3 323.8L546.7 322.1L548 320.5L549.3 318.9L550.7 317.3L552 315.7L553.3 314.2L554.7 312.7L556 311.2L557.3 309.8L558.7 308.3L560 306.8L561.3 305.3L562.7 303.8L564 302.5L565.3 301.2L566.7 299.9L568 298.5L569.3 297.3L570.7 296L572 294.7L573.3 293.5L574.7 292.4L576 291.2L577.3 290L578.7 288.8L580 287.6L581.3 286.5L582.7 285.3L584 284.3L585.3 283.2L586.7 282.1L588 281L589.3 280.1L590.7 279.1L592 278.1L593.3 277.1L594.7 276.1L596 275.1L597.3 274.1L598.7 273.2L600 272.2L601.3 271.3L602.7 270.4L604 269.5L605.3 268.6L606.7 267.8L608 267L609.3 266.2L610.7 265.3L612 264.4L613.3 263.6L614.7 262.8L616 262.1L617.3 261.2L618.7 260.4L620 259.6L621.3 258.9L622.7 258.1L624 257.4L625.3 256.6L626.7 255.9L628 255.1L629.3 254.4L630.7 253.7L632 252.9L633.3 252.3L634.7 251.5L636 250.7L637.3 250L638.7 249.4L640 248.7L641.3 248L642.7 247.4L644 246.6L645.3 245.9L646.7 245.3L648 244.6L649.3 243.9L650.7 243.2L652 242.4L653.3 241.8L654.7 241L656 240.3L657.3 239.6L658.7 239.1L660 238.5L661.3 237.9L662.7 237.3L664 236.7L665.3 236.1L666.7 235.4L668 234.7L669.3 234.1L670.7 233.4L672 232.8L673.3 232.2L674.7 231.6L676 231L677.3 230.3L678.7 229.8L680 229.2L681.3 228.6L682.7 228L684 227.4L685.3 226.8L686.7 226L688 225.4L689.3 224.7L690.7 224.1L692 223.5L693.3 222.9L694.7 222.3L696 221.7L697.3 221.1L698.7 220.6L700 220.1L701.3 219.5L702.7 218.9L704 218.3L705.3 217.7L706.7 217.1L708 216.6L709.3 216L710.7 215.4L712 214.9L713.3 214.4L714.7 213.8L716 213.3L717.3 212.6L718.7 212.1L720 211.6L721.3 211.1L722.7 210.6L724 210.1L725.3 209.6L726.7 209L728 208.4L729.3 207.8L730.7 207.3L732 206.7L733.3 206.2L734.7 205.6L736 205L737.3 204.5L738.7 203.9L740 203.3L741.3 202.9L742.7 202.3L744 201.7L745.3 201.3L746.7 200.7L748 200L749.3 199.4L750.7 198.8L752 198.3L753.3 197.6L754.7 197.2L756 196.6L757.3 196.1L758.7 195.5L760 194.9L761.3 194.4L762.7 193.9L764 193.3L765.3 192.8L766.7 192.2L768 191.7L769.3 190.9L770.7 190.4L772 189.9L773.3 189.3L774.7 188.7L776 188.3L777.3 187.8L778.7 187.2L780 186.6L781.3 186.1L782.7 185.6L784 185L785.3 184.5L786.7 183.9L788 183.4L789.3 182.8L790.7 182.2L792 181.6L793.3 181L794.7 180.5L796 179.9L797.3 179.4L798.7 178.8L800 178.2L801.3 177.5L802.7 176.9L804 176.2L805.3 175.6L806.7 175L808 174.4L809.3 173.7L810.7 173L812 172.5L813.3 171.9L814.7 171.3L816 170.6L817.3 170L818.7 169.5L820 168.9L821.3 168.3L822.7 167.7L824 167.2L825.3 166.5L826.7 165.9L828 165.3L829.3 164.9L830.7 164.5L832 164L833.3 163.4L834.7 162.9L836 162.5L837.3 162L838.7 161.6L840 160.9L841.3 160.4L842.7 159.7L844 159.2L845.3 158.8L846.7 158.1L848 157.6L849.3 157L850.7 156.4L852 155.9L853.3 155.4L854.7 154.9L856 154.5L857.3 153.9L858.7 153.3L860 152.6L861.3 152.1L862.7 151.4L864 150.9L865.3 150.3L866.7 149.6L868 149L869.3 148.4L870.7 148L872 147.6L873.3 146.9L874.7 146.5L876 145.9L877.3 145.4L878.7 144.7L880 144.2L881.3 143.6L882.7 142.9L884 142.1L885.3 141.4L886.7 141L888 140.4L889.3 139.8L890.7 139.1L892 138.5L893.3 137.9L894.7 137.2" fill="none" stroke="#5470c6" stroke-width="2" stroke-linejoin="bevel"></path>
</g>
<g clip-path="url(#zr5-c1)">
<path d="M106.7 682.3L108 681.7L109.3 681L110.7 680.4L112 679.8L113.3 679.1L114.7 678.5L116 677.8L117.3 677.2L118.7 676.6L120 675.9L121.3 675.3L122.7 674.7L124 674L125.3 673.4L126.7 672.8L128 672.1L129.3 671.5L130.7 670.8L132 670.2L133.3 669.6L134.7 668.9L136 668.3L137.3 667.7L138.7 667L140 666.4L141.3 665.8L142.7 665.1L144 664.5L145.3 663.8L146.7 663.2L148 662.6L149.3 661.9L150.7 661.3L152 660.7L153.3 660L154.7 659.4L156 658.7L157.3 658.1L158.7 657.5L160 656.8L161.3 656.2L162.7 655.6L164 654.9L165.3 654.3L166.7 653.7L168 653L169.3 652.4L170.7 651.7L172 651.1L173.3 650.5L174.7 649.8L176 649.2L177.3 648.6L178.7 647.9L180 647.3L181.3 646.7L182.7 646L184 645.4L185.3 644.7L186.7 644.1L188 643.5L189.3 642.8L190.7 642.2L192 641.6L193.3 640.9L194.7 640.3L196 639.7L197.3 639L198.7 638.4L200 637.7L201.3 637.1L202.7 636.5L204 635.8L205.3 635.2L206.7 634.6L208 633.9L209.3 633.3L210.7 632.6L212 632L213.3 631.4L214.7 630.7L216 630.1L217.3 629.5L218.7 628.8L220 628.2L221.3 627.6L222.7 626.9L224 626.3L225.3 625.6L226.7 625L228 624.4L229.3 623.7L230.7 623.1L232 622.5L233.3 621.8L234.7 621.2L236 620.6L237.3 619.9L238.7 619.3L240 618.6L241.3 618L242.7 617.4L244 616.7L245.3 616.1L246.7 615.5L248 614.8L249.3 614.2L250.7 613.5L252 612.9L253.3 612.3L254.7 611.6L256 611L257.3 610.4L258.7 609.7L260 609.1L261.3 608.5L262.7 607.8L264 607.2L265.3 606.5L266.7 605.9L268 605.3L269.3 604.6L270.7 604L272 603.4L273.3 602.7L274.7 602.1L276 601.5L277.3 600.8L278.7 600.2L280 599.5L281.3 598.9L282.7 598.3L284 597.6L285.3 597L286.7 596.4L288 595.7L289.3 595.1L290.7 594.5L292 593.8L293.3 593.2L294.7 592.5L296 591.9L297.3 591.3L298.7 590.6L300 590L301.3 589.4L302.7 588.7L304 588.1L305.3 587.4L306.7 586.8L308 586.2L309.3 585.5L310.7 584.9L312 584.3L313.3 583.6L314.7 583L316 582.4L317.3 581.7L318.7 581.1L320 580.4L321.3 579.8L322.7 579.2L324 578.5L325.3 577.9L326.7 577.3L328 576.6L329.3 576L330.7 575.4L332 574.7L333.3 574.1L334.7 573.4L336 572.8L337.3 572.2L338.7 571.5L340 570.9L341.3 570.3L342.7 569.6L344 569L345.3 568.4L346.7 567.7L348 567.1L349.3 566.4L350.7 565.8L352 565.2L353.3 564.5L354.7 563.9L356 563.3L357.3 562.6L358.7 562L360 561.3L361.3 560.7L362.7 560.1L364 559.4L365.3 558.8L366.7 558.2L368 557.5L369.3 556.9L370.7 556.3L372 555.6L373.3 555L374.7 554.3L376 553.7L377.3 553.1L378.7 552.4L380 551.8L381.3 551.2L382.7 550.5L384 549.9L385.3 549.3L386.7 548.6L388 548L389.3 547.3L390.7 546.7L392 546.1L393.3 545.4L394.7 544.8L396 544.2L397.3 543.5L398.7 542.9L400 542.3L401.3 541.6L402.7 541L404 540.3L405.3 539.7L406.7 539.1L408 538.4L409.3 537.8L410.7 537.2L412 536.5L413.3 535.9L414.7 535.2L416 534.6L417.3 534L418.7 533.3L420 532.7L421.3 532.1L422.7 531.4L424 530.8L425.3 530.2L426.7 529.5L428 528.9L429.3 528.2L430.7 527.6L432 527L433.3 526.3L434.7 525.7L436 525.1L437.3 524.4L438.7 523.8L440 523.2L441.3 522.5L442.7 521.9L444 521.2L445.3 520.6L446.7 520L448 519.3L449.3 518.7L450.7 518.1L452 517.4L453.3 516.8L454.7 516.2L456 515.5L457.3 514.9L458.7 514.2L460 513.6L461.3 513L462.7 512.3L464 511.7L465.3 511.1L466.7 510.4L468 509.8L469.3 509.1L470.7 508.5L472 507.9L473.3 507.2L474.7 506.6L476 506L477.3 505.3L478.7 504.7L480 504.1L481.3 503.4L482.7 502.8L484 502.1L485.3 501.5L486.7 500.9L488 500.2L489.3 499.6L490.7 499L492 498.3L493.3 497.7L494.7 497.1L496 496.4L497.3 495.8L498.7 495.1L500 494.5L501.3 493.9L502.7 493.2L504 492.6L505.3 492L506.7 491.3L508 490.7L509.3 490.1L510.7 489.4L512 488.8L513.3 488.1L514.7 487.5L516 486.9L517.3 486.2L518.7 485.6L520 485L521.3 484.3L522.7 483.7L524 483L525.3 482.4L526.7 481.8L528 481.1L529.3 480.5L530.7 479.9L532 479.2L533.3 478.6L534.7 478L536 477.3L537.3 476.7L538.7 476L540 475.4L541.3 474.8L542.7 474.1L544 473.5L545.3 472.9L546.7 472.2L548 471.6L549.3 471L550.7 470.3L552 469.7L553.3 469L554.7 468.4L556 467.8L557.3 467.1L558.7 466.5L560 465.9L561.3 465.2L562.7 464.6L564 463.9L565.3 463.3L566.7 462.7L568 462L569.3 461.4L570.7 460.8L572 460.1L573.3 459.5L574.7 458.9L576 458.2L577.3 457.6L578.7 456.9L580 456.3L581.3 455.7L582.7 455L584 454.4L585.3 453.8L586.7 453.1L588 452.5L589.3 451.9L590.7 451.2L592 450.6L593.3 449.9L594.7 449.3L596 448.7L597.3 448L598.7 447.4L600 446.8L601.3 446.1L602.7 445.5L604 444.9L605.3 444.2L606.7 443.6L608 442.9L609.3 442.3L610.7 441.7L612 441L613.3 440.4L614.7 439.8L616 439.1L617.3 438.5L618.7 437.8L620 437.2L621.3 436.6L622.7 435.9L624 435.3L625.3 434.7L626.7 434L628 433.4L629.3 432.8L630.7 432.1L632 431.5L633.3 430.8L634.7 430.2L636 429.6L637.3 428.9L638.7 428.3L640 427.7L641.3 427L642.7 426.4L644 425.8L645.3 425.1L646.7 424.5L648 423.8L649.3 423.2L650.7 422.6L652 421.9L653.3 421.3L654.7 420.7L656 420L657.3 419.4L658.7 418.8L660 418.1L661.3 417.5L662.7 416.8L664 416.2L665.3 415.6L666.7 414.9L668 414.3L669.3 413.7L670.7 413L672 412.4L673.3 411.7L674.7 411.1L676 410.5L677.3 409.8L678.7 409.2L680 408.6L681.3 407.9L682.7 407.3L684 406.7L685.3 406L686.7 405.4L688 404.7L689.3 404.1L690.7 403.5L692 402.8L693.3 402.2L694.7 401.6L696 400.9L697.3 400.3L698.7 399.7L700 399L701.3 398.4L702.7 397.7L704 397.1L705.3 396.5L706.7 395.8L708 395.2L709.3 394.6L710.7 393.9L712 393.3L713.3 392.7L714.7 392L716 391.4L717.3 390.7L718.7 390.1L720 389.5L721.3 388.8L722.7 388.2L724 387.6L725.3 386.9L726.7 386.3L728 385.6L729.3 385L730.7 384.4L732 383.7L733.3 383.1L734.7 382.5L736 381.8L737.3 381.2L738.7 380.6L740 379.9L741.3 379.3L742.7 378.6L744 378L745.3 377.4L746.7 376.7L748 376.1L749.3 375.5L750.7 374.8L752 374.2L753.3 373.6L754.7 372.9L756 372.3L757.3 371.6L758.7 371L760 370.4L761.3 369.7L762.7 369.1L764 368.5L765.3 367.8L766.7 367.2L768 366.6L769.3 365.9L770.7 365.3L772 364.6L773.3 364L774.7 363.4L776 362.7L777.3 362.1L778.7 361.5L780 360.8L781.3 360.2L782.7 359.5L784 358.9L785.3 358.3L786.7 357.6L788 357L789.3 356.4L790.7 355.7L792 355.1L793.3 354.5L794.7 353.8L796 353.2L797.3 352.5L798.7 351.9L800 351.3L801.3 350.6L802.7 350L804 349.4L805.3 348.7L806.7 348.1L808 347.5L809.3 346.8L810.7 346.2L812 345.5L813.3 344.9L814.7 344.3L816 343.6L817.3 343L818.7 342.4L820 341.7L821.3 341.1L822.7 340.5L824 339.8L825.3 339.2L826.7 338.5L828 337.9L829.3 337.3L830.7 336.6L832 336L833.3 335.4L834.7 334.7L836 334.1L837.3 333.4L838.7 332.8L840 332.2L841.3 331.5L842.7 330.9L844 330.3L845.3 329.6L846.7 329L848 328.4L849.3 327.7L850.7 327.1L852 326.4L853.3 325.8L854.7 325.2L856 324.5L857.3 323.9L858.7 323.3L860 322.6L861.3 322L862.7 321.4L864 320.7L865.3 320.1L866.7 319.4L868 318.8L869.3 318.2L870.7 317.5L872 316.9L873.3 316.3L874.7 315.6L876 315L877.3 314.3L878.7 313.7L880 313.1L881.3 312.4L882.7 311.8L884 311.2L885.3 310.5L886.7 309.9L888 309.3L889.3 308.6L890.7 308L892 307.3L893.3 306.7L894.7 306.1" fill="none" stroke="#91cc75" stroke-width="2" stroke-linejoin="bevel"></path>
</g>
<g clip-path="url(#zr5-c2)">
<path d="M106.7 473.3L108 472.7L109.3 472.1L110.7 471.6L112 471L113.3 470.4L114.7 469.9L116 469.3L117.3 468.7L118.7 468.2L120 467.6L121.3 467L122.7 466.5L124 465.9L125.3 465.3L126.7 464.8L128 464.2L129.3 463.6L130.7 463.1L132 462.5L133.3 461.9L134.7 461.4L136 460.8L137.3 460.2L138.7 459.7L140 459.1L141.3 458.5L142.7 457.9L144 457.4L145.3 456.8L146.7 456.2L148 455.7L149.3 455.1L150.7 454.5L152 454L153.3 453.4L154.7 452.8L156 452.3L157.3 451.7L158.7 451.1L160 450.6L161.3 450L162.7 449.4L164 448.9L165.3 448.3L166.7 447.7L168 447.2L169.3 446.6L170.7 446L172 445.5L173.3 444.9L174.7 444.3L176 443.7L177.3 443.2L178.7 442.6L180 442L181.3 441.5L182.7 440.9L184 440.3L185.3 439.8L186.7 439.2L188 438.6L189.3 438.1L190.7 437.5L192 436.9L193.3 436.4L194.7 435.8L196 435.2L197.3 434.7L198.7 434.1L200 433.5L201.3 433L202.7 432.4L204 431.8L205.3 431.3L206.7 430.7L208 430.1L209.3 429.5L210.7 429L212 428.4L213.3 427.8L214.7 427.3L216 426.7L217.3 426.1L218.7 425.6L220 425L221.3 424.4L222.7 423.9L224 423.3L225.3 422.7L226.7 422.2L228 421.6L229.3 421L230.7 420.5L232 419.9L233.3 419.3L234.7 418.8L236 418.2L237.3 417.6L238.7 417.1L240 416.5L241.3 415.9L242.7 415.3L244 414.8L245.3 414.2L246.7 413.6L248 413.1L249.3 412.5L250.7 411.9L252 411.4L253.3 410.8L254.7 410.2L256 409.7L257.3 409.1L258.7 408.5L260 408L261.3 407.4L262.7 406.8L264 406.3L265.3 405.7L266.7 405.1L268 404.6L269.3 404L270.7 403.4L272 402.9L273.3 402.3L274.7 401.7L276 401.2L277.3 400.6L278.7 400L280 399.4L281.3 398.9L282.7 398.3L284 397.7L285.3 397.2L286.7 396.6L288 396L289.3 395.5L290.7 394.9L292 394.3L293.3 393.8L294.7 393.2L296 392.6L297.3 392.1L298.7 391.5L300 390.9L301.3 390.4L302.7 389.8L304 389.2L305.3 388.7L306.7 388.1L308 387.5L309.3 387L310.7 386.4L312 385.8L313.3 385.2L314.7 384.7L316 384.1L317.3 383.5L318.7 383L320 382.4L321.3 381.8L322.7 381.3L324 380.7L325.3 380.1L326.7 379.6L328 379L329.3 378.4L330.7 377.9L332 377.3L333.3 376.7L334.7 376.2L336 375.6L337.3 375L338.7 374.5L340 373.9L341.3 373.3L342.7 372.8L344 372.2L345.3 371.6L346.7 371L348 370.5L349.3 369.9L350.7 369.3L352 368.8L353.3 368.2L354.7 367.6L356 367.1L357.3 366.5L358.7 365.9L360 365.4L361.3 364.8L362.7 364.2L364 363.7L365.3 363.1L366.7 362.5L368 362L369.3 361.4L370.7 360.8L372 360.3L373.3 359.7L374.7 359.1L376 358.6L377.3 358L378.7 357.4L380 356.8L381.3 356.3L382.7 355.7L384 355.1L385.3 354.6L386.7 354L388 353.4L389.3 352.9L390.7 352.3L392 351.7L393.3 351.2L394.7 350.6L396 350L397.3 349.5L398.7 348.9L400 348.3L401.3 347.8L402.7 347.2L404 346.6L405.3 346.1L406.7 345.5L408 344.9L409.3 344.4L410.7 343.8L412 343.2L413.3 342.6L414.7 342.1L416 341.5L417.3 340.9L418.7 340.4L420 339.8L421.3 339.2L422.7 338.7L424 338.1L425.3 337.5L426.7 337L428 336.4L429.3 335.8L430.7 335.3L432 334.7L433.3 334.1L434.7 333.6L436 333L437.3 332.4L438.7 331.9L440 331.3L441.3 330.7L442.7 330.2L444 329.6L445.3 329L446.7 328.4L448 327.9L449.3 327.3L450.7 326.7L452 326.2L453.3 325.6L454.7 325L456 324.5L457.3 323.9L458.7 323.3L460 322.8L461.3 322.2L462.7 321.6L464 321.1L465.3 320.5L466.7 319.9L468 319.4L469.3 318.8L470.7 318.2L472 317.7L473.3 317.1L474.7 316.5L476 316L477.3 315.4L478.7 314.8L480 314.3L481.3 313.7L482.7 313.1L484 312.5L485.3 312L486.7 311.4L488 310.8L489.3 310.3L490.7 309.7L492 309.1L493.3 308.6L494.7 308L496 307.4L497.3 306.9L498.7 306.3L500 305.7L501.3 305.2L502.7 304.6L504 304L505.3 303.5L506.7 302.9L508 302.3L509.3 301.8L510.7 301.2L512 300.6L513.3 300.1L514.7 299.5L516 298.9L517.3 298.3L518.7 297.8L520 297.2L521.3 296.6L522.7 296.1L524 295.5L525.3 294.9L526.7 294.4L528 293.8L529.3 293.2L530.7 292.7L532 292.1L533.3 291.5L534.7 291L536 290.4L537.3 289.8L538.7 289.3L540 288.7L541.3 288.1L542.7 287.6L544 287L545.3 286.4L546.7 285.9L548 285.3L549.3 284.7L550.7 284.1L552 283.6L553.3 283L554.7 282.4L556 281.9L557.3 281.3L558.7 280.7L560 280.2L561.3 279.6L562.7 279L564 278.5L565.3 277.9L566.7 277.3L568 276.8L569.3 276.2L570.7 275.6L572 275.1L573.3 274.5L574.7 273.9L576 273.4L577.3 272.8L578.7 272.2L580 271.7L581.3 271.1L582.7 270.5L584 269.9L585.3 269.4L586.7 268.8L588 268.2L589.3 267.7L590.7 267.1L592 266.5L593.3 266L594.7 265.4L596 264.8L597.3 264.3L598.7 263.7L600 263.1L601.3 262.6L602.7 262L604 261.4L605.3 260.9L606.7 260.3L608 259.7L609.3 259.2L610.7 258.6L612 258L613.3 257.5L614.7 256.9L616 256.3L617.3 255.7L618.7 255.2L620 254.6L621.3 254L622.7 253.5L624 252.9L625.3 252.3L626.7 251.8L628 251.2L629.3 250.6L630.7 250.1L632 249.5L633.3 248.9L634.7 248.4L636 247.8L637.3 247.2L638.7 246.7L640 246.1L641.3 245.5L642.7 245L644 244.4L645.3 243.8L646.7 243.3L648 242.7L649.3 242.1L650.7 241.6L652 241L653.3 240.4L654.7 239.8L656 239.3L657.3 238.7L658.7 238.1L660 237.6L661.3 237L662.7 236.4L664 235.9L665.3 235.3L666.7 234.7L668 234.2L669.3 233.6L670.7 233L672 232.5L673.3 231.9L674.7 231.3L676 230.8L677.3 230.2L678.7 229.6L680 229.1L681.3 228.5L682.7 227.9L684 227.4L685.3 226.8L686.7 226.2L688 225.6L689.3 225.1L690.7 224.5L692 223.9L693.3 223.4L694.7 222.8L696 222.2L697.3 221.7L698.7 221.1L700 220.5L701.3 220L702.7 219.4L704 218.8L705.3 218.3L706.7 217.7L708 217.1L709.3 216.6L710.7 216L712 215.4L713.3 214.9L714.7 214.3L716 213.7L717.3 213.2L718.7 212.6L720 212L721.3 211.4L722.7 210.9L724 210.3L725.3 209.7L726.7 209.2L728 208.6L729.3 208L730.7 207.5L732 206.9L733.3 206.3L734.7 205.8L736 205.2L737.3 204.6L738.7 204.1L740 203.5L741.3 202.9L742.7 202.4L744 201.8L745.3 201.2L746.7 200.7L748 200.1L749.3 199.5L750.7 199L752 198.4L753.3 197.8L754.7 197.2L756 196.7L757.3 196.1L758.7 195.5L760 195L761.3 194.4L762.7 193.8L764 193.3L765.3 192.7L766.7 192.1L768 191.6L769.3 191L770.7 190.4L772 189.9L773.3 189.3L774.7 188.7L776 188.2L777.3 187.6L778.7 187L780 186.5L781.3 185.9L782.7 185.3L784 184.8L785.3 184.2L786.7 183.6L788 183L789.3 182.5L790.7 181.9L792 181.3L793.3 180.8L794.7 180.2L796 179.6L797.3 179.1L798.7 178.5L800 177.9L801.3 177.4L802.7 176.8L804 176.2L805.3 175.7L806.7 175.1L808 174.5L809.3 174L810.7 173.4L812 172.8L813.3 172.3L814.7 171.7L816 171.1L817.3 170.6L818.7 170L820 169.4L821.3 168.8L822.7 168.3L824 167.7L825.3 167.1L826.7 166.6L828 166L829.3 165.4L830.7 164.9L832 164.3L833.3 163.7L834.7 163.2L836 162.6L837.3 162L838.7 161.5L840 160.9L841.3 160.3L842.7 159.8L844 159.2L845.3 158.6L846.7 158.1L848 157.5L849.3 156.9L850.7 156.4L852 155.8L853.3 155.2L854.7 154.7L856 154.1L857.3 153.5L858.7 152.9L860 152.4L861.3 151.8L862.7 151.2L864 150.7L865.3 150.1L866.7 149.5L868 149L869.3 148.4L870.7 147.8L872 147.3L873.3 146.7L874.7 146.1L876 145.6L877.3 145L878.7 144.4L880 143.9L881.3 143.3L882.7 142.7L884 142.2L885.3 141.6L886.7 141L888 140.5L889.3 139.9L890.7 139.3L892 138.7L893.3 138.2L894.7 137.6" fill="none" stroke="#fac858" stroke-width="2" stroke-linejoin="bevel"></path>
</g>
<path d="M-0.54 -0.89A0.6 0.6 0 1 1 0.54 -0.89C0.39 -0.56 0 -0.42 0 0C0 -0.42 -0.39 -0.56 -0.54 -0.89Z" transform="matrix(25,0,0,25,500,494.5064)" fill="#91cc75"></path>
<path d="M-0.54 -0.89A0.6 0.6 0 1 1 0.54 -0.89C0.39 -0.56 0 -0.42 0 0C0 -0.42 -0.39 -0.56 -0.54 -0.89Z" transform="matrix(25,0,0,25,500,305.7311)" fill="#fac858"></path>
<text dominant-baseline="central" text-anchor="middle" style="font-size:12px;font-family:sans-serif;" transform="translate(500 468.3636)" fill="#333">-4.5</text>
<text dominant-baseline="central" text-anchor="middle" style="font-size:12px;font-family:sans-serif;" transform="translate(500 279.5882)" fill="#333">4</text>
<defs >
<clipPath id="zr5-c0">
<path d="M99 59l802 0l0 672l-802 0Z" fill="#000"></path>
</clipPath>
<clipPath id="zr5-c1">
<path d="M99 59l802 0l0 672l-802 0Z" fill="#000"></path>
</clipPath>
<clipPath id="zr5-c2">
<path d="M99 59l802 0l0 672l-802 0Z" fill="#000"></path>
</clipPath>
</defs>
</svg>